<mxfile host="Electron" modified="2023-11-04T13:56:24.236Z" agent="Mozilla/5.0 (Windows NT 10.0; Win64; x64) AppleWebKit/537.36 (KHTML, like Gecko) draw.io/22.0.2 Chrome/114.0.5735.289 Electron/25.8.4 Safari/537.36" etag="rRF5ITj_NR9V5TyZJgX7" version="22.0.2" type="device" pages="7">
  <diagram name="User Use Case" id="NfF6h67l0gqhsrx5ayTS">
    <mxGraphModel dx="864" dy="516" grid="1" gridSize="10" guides="1" tooltips="1" connect="1" arrows="1" fold="1" page="1" pageScale="1" pageWidth="850" pageHeight="1100" math="0" shadow="0">
      <root>
        <mxCell id="0" />
        <mxCell id="1" parent="0" />
        <mxCell id="4k9NwJD_-DrnsMXn48SK-4" value="Registration" style="ellipse;whiteSpace=wrap;html=1;" vertex="1" parent="1">
          <mxGeometry x="330" width="120" height="80" as="geometry" />
        </mxCell>
        <mxCell id="4k9NwJD_-DrnsMXn48SK-6" value="Login" style="ellipse;whiteSpace=wrap;html=1;" vertex="1" parent="1">
          <mxGeometry x="330" y="90" width="120" height="80" as="geometry" />
        </mxCell>
        <mxCell id="4k9NwJD_-DrnsMXn48SK-7" value="Search Item" style="ellipse;whiteSpace=wrap;html=1;" vertex="1" parent="1">
          <mxGeometry x="330" y="277" width="120" height="80" as="geometry" />
        </mxCell>
        <mxCell id="4k9NwJD_-DrnsMXn48SK-8" value="Add to Cart" style="ellipse;whiteSpace=wrap;html=1;" vertex="1" parent="1">
          <mxGeometry x="330" y="367" width="120" height="80" as="geometry" />
        </mxCell>
        <mxCell id="4k9NwJD_-DrnsMXn48SK-9" value="Buy Item" style="ellipse;whiteSpace=wrap;html=1;" vertex="1" parent="1">
          <mxGeometry x="330" y="457" width="120" height="80" as="geometry" />
        </mxCell>
        <mxCell id="4k9NwJD_-DrnsMXn48SK-10" value="Order Place" style="ellipse;whiteSpace=wrap;html=1;" vertex="1" parent="1">
          <mxGeometry x="330" y="547" width="120" height="80" as="geometry" />
        </mxCell>
        <mxCell id="4k9NwJD_-DrnsMXn48SK-11" value="Payment" style="ellipse;whiteSpace=wrap;html=1;" vertex="1" parent="1">
          <mxGeometry x="330" y="637" width="120" height="80" as="geometry" />
        </mxCell>
        <mxCell id="4k9NwJD_-DrnsMXn48SK-12" value="" style="endArrow=classic;html=1;rounded=0;entryX=-0.025;entryY=0.663;entryDx=0;entryDy=0;entryPerimeter=0;" edge="1" parent="1" target="4k9NwJD_-DrnsMXn48SK-4">
          <mxGeometry width="50" height="50" relative="1" as="geometry">
            <mxPoint x="180" y="220" as="sourcePoint" />
            <mxPoint x="250" y="110" as="targetPoint" />
          </mxGeometry>
        </mxCell>
        <mxCell id="4k9NwJD_-DrnsMXn48SK-13" value="" style="endArrow=classic;html=1;rounded=0;entryX=-0.025;entryY=0.405;entryDx=0;entryDy=0;entryPerimeter=0;" edge="1" parent="1" target="4k9NwJD_-DrnsMXn48SK-14">
          <mxGeometry width="50" height="50" relative="1" as="geometry">
            <mxPoint x="170" y="490" as="sourcePoint" />
            <mxPoint x="337" y="160" as="targetPoint" />
          </mxGeometry>
        </mxCell>
        <mxCell id="4k9NwJD_-DrnsMXn48SK-14" value="Logout" style="ellipse;whiteSpace=wrap;html=1;" vertex="1" parent="1">
          <mxGeometry x="330" y="728" width="120" height="79" as="geometry" />
        </mxCell>
        <mxCell id="4k9NwJD_-DrnsMXn48SK-15" value="" style="endArrow=classic;html=1;rounded=0;entryX=-0.008;entryY=0.4;entryDx=0;entryDy=0;entryPerimeter=0;" edge="1" parent="1" target="4k9NwJD_-DrnsMXn48SK-11">
          <mxGeometry width="50" height="50" relative="1" as="geometry">
            <mxPoint x="190" y="480" as="sourcePoint" />
            <mxPoint x="337" y="770" as="targetPoint" />
          </mxGeometry>
        </mxCell>
        <mxCell id="4k9NwJD_-DrnsMXn48SK-16" value="" style="endArrow=classic;html=1;rounded=0;entryX=0;entryY=0.388;entryDx=0;entryDy=0;entryPerimeter=0;" edge="1" parent="1" target="4k9NwJD_-DrnsMXn48SK-10">
          <mxGeometry width="50" height="50" relative="1" as="geometry">
            <mxPoint x="210" y="460" as="sourcePoint" />
            <mxPoint x="339" y="679" as="targetPoint" />
          </mxGeometry>
        </mxCell>
        <mxCell id="4k9NwJD_-DrnsMXn48SK-17" value="" style="endArrow=classic;html=1;rounded=0;entryX=0;entryY=0.5;entryDx=0;entryDy=0;" edge="1" parent="1" target="4k9NwJD_-DrnsMXn48SK-8">
          <mxGeometry width="50" height="50" relative="1" as="geometry">
            <mxPoint x="250" y="390" as="sourcePoint" />
            <mxPoint x="340" y="588" as="targetPoint" />
          </mxGeometry>
        </mxCell>
        <mxCell id="4k9NwJD_-DrnsMXn48SK-18" value="" style="endArrow=classic;html=1;rounded=0;entryX=-0.033;entryY=0.4;entryDx=0;entryDy=0;entryPerimeter=0;" edge="1" parent="1" target="4k9NwJD_-DrnsMXn48SK-9">
          <mxGeometry width="50" height="50" relative="1" as="geometry">
            <mxPoint x="250" y="440" as="sourcePoint" />
            <mxPoint x="350" y="598" as="targetPoint" />
          </mxGeometry>
        </mxCell>
        <mxCell id="4k9NwJD_-DrnsMXn48SK-19" value="" style="endArrow=classic;html=1;rounded=0;entryX=0;entryY=0.5;entryDx=0;entryDy=0;" edge="1" parent="1" target="4k9NwJD_-DrnsMXn48SK-7">
          <mxGeometry width="50" height="50" relative="1" as="geometry">
            <mxPoint x="250" y="320" as="sourcePoint" />
            <mxPoint x="340" y="588" as="targetPoint" />
          </mxGeometry>
        </mxCell>
        <mxCell id="4k9NwJD_-DrnsMXn48SK-20" value="" style="endArrow=classic;html=1;rounded=0;entryX=-0.025;entryY=0.638;entryDx=0;entryDy=0;entryPerimeter=0;" edge="1" parent="1" target="4k9NwJD_-DrnsMXn48SK-6">
          <mxGeometry width="50" height="50" relative="1" as="geometry">
            <mxPoint x="220" y="230" as="sourcePoint" />
            <mxPoint x="340" y="230" as="targetPoint" />
          </mxGeometry>
        </mxCell>
        <mxCell id="4k9NwJD_-DrnsMXn48SK-24" value="User" style="shape=umlActor;verticalLabelPosition=bottom;verticalAlign=top;html=1;outlineConnect=0;" vertex="1" parent="1">
          <mxGeometry x="130" y="277" width="90" height="120" as="geometry" />
        </mxCell>
        <mxCell id="MZoWeBfVrMgjKehAb1xJ-1" value="Account" style="ellipse;whiteSpace=wrap;html=1;" vertex="1" parent="1">
          <mxGeometry x="330" y="180" width="120" height="80" as="geometry" />
        </mxCell>
        <mxCell id="MZoWeBfVrMgjKehAb1xJ-2" value="" style="endArrow=classic;html=1;rounded=0;entryX=-0.017;entryY=0.625;entryDx=0;entryDy=0;entryPerimeter=0;" edge="1" parent="1" target="MZoWeBfVrMgjKehAb1xJ-1">
          <mxGeometry width="50" height="50" relative="1" as="geometry">
            <mxPoint x="240" y="270" as="sourcePoint" />
            <mxPoint x="337" y="151" as="targetPoint" />
          </mxGeometry>
        </mxCell>
      </root>
    </mxGraphModel>
  </diagram>
  <diagram name="Admin Use Case" id="WMNFetIGnlhcZd5wPAaC">
    <mxGraphModel dx="864" dy="516" grid="1" gridSize="10" guides="1" tooltips="1" connect="1" arrows="1" fold="1" page="1" pageScale="1" pageWidth="850" pageHeight="1100" math="0" shadow="0">
      <root>
        <mxCell id="g-MvFmS6le9Vddn08YEU-0" />
        <mxCell id="g-MvFmS6le9Vddn08YEU-1" parent="g-MvFmS6le9Vddn08YEU-0" />
        <mxCell id="g-MvFmS6le9Vddn08YEU-2" value="Login" style="ellipse;whiteSpace=wrap;html=1;" vertex="1" parent="g-MvFmS6le9Vddn08YEU-1">
          <mxGeometry x="280" width="120" height="80" as="geometry" />
        </mxCell>
        <mxCell id="g-MvFmS6le9Vddn08YEU-3" value="Manage Catagory" style="ellipse;whiteSpace=wrap;html=1;" vertex="1" parent="g-MvFmS6le9Vddn08YEU-1">
          <mxGeometry x="280" y="90" width="120" height="80" as="geometry" />
        </mxCell>
        <mxCell id="g-MvFmS6le9Vddn08YEU-4" value="Manage Item" style="ellipse;whiteSpace=wrap;html=1;" vertex="1" parent="g-MvFmS6le9Vddn08YEU-1">
          <mxGeometry x="280" y="180" width="120" height="80" as="geometry" />
        </mxCell>
        <mxCell id="g-MvFmS6le9Vddn08YEU-5" value="Manage Order" style="ellipse;whiteSpace=wrap;html=1;" vertex="1" parent="g-MvFmS6le9Vddn08YEU-1">
          <mxGeometry x="280" y="270" width="120" height="80" as="geometry" />
        </mxCell>
        <mxCell id="g-MvFmS6le9Vddn08YEU-6" value="Manage Report" style="ellipse;whiteSpace=wrap;html=1;" vertex="1" parent="g-MvFmS6le9Vddn08YEU-1">
          <mxGeometry x="280" y="360" width="120" height="80" as="geometry" />
        </mxCell>
        <mxCell id="g-MvFmS6le9Vddn08YEU-7" value="Manage Rights" style="ellipse;whiteSpace=wrap;html=1;" vertex="1" parent="g-MvFmS6le9Vddn08YEU-1">
          <mxGeometry x="280" y="450" width="120" height="80" as="geometry" />
        </mxCell>
        <mxCell id="g-MvFmS6le9Vddn08YEU-8" value="Logout" style="ellipse;whiteSpace=wrap;html=1;" vertex="1" parent="g-MvFmS6le9Vddn08YEU-1">
          <mxGeometry x="280" y="540" width="120" height="80" as="geometry" />
        </mxCell>
        <mxCell id="g-MvFmS6le9Vddn08YEU-9" value="" style="endArrow=classic;html=1;rounded=0;entryX=-0.025;entryY=0.663;entryDx=0;entryDy=0;entryPerimeter=0;" edge="1" parent="g-MvFmS6le9Vddn08YEU-1" target="g-MvFmS6le9Vddn08YEU-2">
          <mxGeometry width="50" height="50" relative="1" as="geometry">
            <mxPoint x="130" y="220" as="sourcePoint" />
            <mxPoint x="200" y="110" as="targetPoint" />
          </mxGeometry>
        </mxCell>
        <mxCell id="g-MvFmS6le9Vddn08YEU-12" value="" style="endArrow=classic;html=1;rounded=0;entryX=-0.008;entryY=0.4;entryDx=0;entryDy=0;entryPerimeter=0;" edge="1" parent="g-MvFmS6le9Vddn08YEU-1" target="g-MvFmS6le9Vddn08YEU-8">
          <mxGeometry width="50" height="50" relative="1" as="geometry">
            <mxPoint x="130" y="440" as="sourcePoint" />
            <mxPoint x="287" y="673" as="targetPoint" />
          </mxGeometry>
        </mxCell>
        <mxCell id="g-MvFmS6le9Vddn08YEU-13" value="" style="endArrow=classic;html=1;rounded=0;entryX=0;entryY=0.388;entryDx=0;entryDy=0;entryPerimeter=0;" edge="1" parent="g-MvFmS6le9Vddn08YEU-1" target="g-MvFmS6le9Vddn08YEU-7">
          <mxGeometry width="50" height="50" relative="1" as="geometry">
            <mxPoint x="170" y="430" as="sourcePoint" />
            <mxPoint x="289" y="582" as="targetPoint" />
          </mxGeometry>
        </mxCell>
        <mxCell id="g-MvFmS6le9Vddn08YEU-14" value="" style="endArrow=classic;html=1;rounded=0;entryX=0;entryY=0.5;entryDx=0;entryDy=0;" edge="1" parent="g-MvFmS6le9Vddn08YEU-1" target="g-MvFmS6le9Vddn08YEU-5">
          <mxGeometry width="50" height="50" relative="1" as="geometry">
            <mxPoint x="200" y="320" as="sourcePoint" />
            <mxPoint x="290" y="491" as="targetPoint" />
          </mxGeometry>
        </mxCell>
        <mxCell id="g-MvFmS6le9Vddn08YEU-15" value="" style="endArrow=classic;html=1;rounded=0;entryX=-0.033;entryY=0.4;entryDx=0;entryDy=0;entryPerimeter=0;" edge="1" parent="g-MvFmS6le9Vddn08YEU-1" target="g-MvFmS6le9Vddn08YEU-6">
          <mxGeometry width="50" height="50" relative="1" as="geometry">
            <mxPoint x="200" y="370" as="sourcePoint" />
            <mxPoint x="300" y="501" as="targetPoint" />
          </mxGeometry>
        </mxCell>
        <mxCell id="g-MvFmS6le9Vddn08YEU-16" value="" style="endArrow=classic;html=1;rounded=0;entryX=0;entryY=0.5;entryDx=0;entryDy=0;" edge="1" parent="g-MvFmS6le9Vddn08YEU-1" target="g-MvFmS6le9Vddn08YEU-4">
          <mxGeometry width="50" height="50" relative="1" as="geometry">
            <mxPoint x="190" y="270" as="sourcePoint" />
            <mxPoint x="290" y="491" as="targetPoint" />
          </mxGeometry>
        </mxCell>
        <mxCell id="g-MvFmS6le9Vddn08YEU-17" value="" style="endArrow=classic;html=1;rounded=0;entryX=-0.025;entryY=0.638;entryDx=0;entryDy=0;entryPerimeter=0;" edge="1" parent="g-MvFmS6le9Vddn08YEU-1" target="g-MvFmS6le9Vddn08YEU-3">
          <mxGeometry width="50" height="50" relative="1" as="geometry">
            <mxPoint x="170" y="230" as="sourcePoint" />
            <mxPoint x="290" y="230" as="targetPoint" />
          </mxGeometry>
        </mxCell>
        <mxCell id="g-MvFmS6le9Vddn08YEU-18" value="Admin" style="shape=umlActor;verticalLabelPosition=bottom;verticalAlign=top;html=1;outlineConnect=0;" vertex="1" parent="g-MvFmS6le9Vddn08YEU-1">
          <mxGeometry x="80" y="260" width="90" height="120" as="geometry" />
        </mxCell>
      </root>
    </mxGraphModel>
  </diagram>
  <diagram id="7yaBnJiWz9ZgVMk_x-2a" name="0 Level User">
    <mxGraphModel dx="864" dy="516" grid="1" gridSize="10" guides="1" tooltips="1" connect="1" arrows="1" fold="1" page="1" pageScale="1" pageWidth="850" pageHeight="1100" math="0" shadow="0">
      <root>
        <mxCell id="0" />
        <mxCell id="1" parent="0" />
        <mxCell id="w4UUT2ZMDX1gfFvIo1JZ-1" value="User" style="whiteSpace=wrap;html=1;aspect=fixed;" vertex="1" parent="1">
          <mxGeometry x="40" y="40" width="160" height="160" as="geometry" />
        </mxCell>
        <mxCell id="w4UUT2ZMDX1gfFvIo1JZ-2" value="Database" style="ellipse;whiteSpace=wrap;html=1;aspect=fixed;" vertex="1" parent="1">
          <mxGeometry x="500" y="360" width="110" height="110" as="geometry" />
        </mxCell>
        <mxCell id="w4UUT2ZMDX1gfFvIo1JZ-6" value="" style="endArrow=classic;html=1;rounded=0;exitX=1.019;exitY=0.069;exitDx=0;exitDy=0;exitPerimeter=0;" edge="1" parent="1" source="w4UUT2ZMDX1gfFvIo1JZ-1">
          <mxGeometry width="50" height="50" relative="1" as="geometry">
            <mxPoint x="400" y="280" as="sourcePoint" />
            <mxPoint x="590" y="370" as="targetPoint" />
            <Array as="points">
              <mxPoint x="590" y="50" />
            </Array>
          </mxGeometry>
        </mxCell>
        <mxCell id="X4kUy2XX1dMS1l6dVzqW-1" value="1" style="edgeLabel;html=1;align=center;verticalAlign=middle;resizable=0;points=[];" vertex="1" connectable="0" parent="w4UUT2ZMDX1gfFvIo1JZ-6">
          <mxGeometry x="-0.952" y="2" relative="1" as="geometry">
            <mxPoint as="offset" />
          </mxGeometry>
        </mxCell>
        <mxCell id="X4kUy2XX1dMS1l6dVzqW-2" value="Registration" style="edgeLabel;html=1;align=center;verticalAlign=middle;resizable=0;points=[];" vertex="1" connectable="0" parent="w4UUT2ZMDX1gfFvIo1JZ-6">
          <mxGeometry x="-0.7993" y="-2" relative="1" as="geometry">
            <mxPoint as="offset" />
          </mxGeometry>
        </mxCell>
        <mxCell id="X4kUy2XX1dMS1l6dVzqW-3" value="Email id /Password" style="edgeLabel;html=1;align=center;verticalAlign=middle;resizable=0;points=[];" vertex="1" connectable="0" parent="w4UUT2ZMDX1gfFvIo1JZ-6">
          <mxGeometry x="-0.4909" y="3" relative="1" as="geometry">
            <mxPoint as="offset" />
          </mxGeometry>
        </mxCell>
        <mxCell id="w4UUT2ZMDX1gfFvIo1JZ-7" value="" style="endArrow=classic;html=1;rounded=0;exitX=1.019;exitY=0.206;exitDx=0;exitDy=0;exitPerimeter=0;entryX=0.655;entryY=-0.009;entryDx=0;entryDy=0;entryPerimeter=0;" edge="1" parent="1" source="w4UUT2ZMDX1gfFvIo1JZ-1" target="w4UUT2ZMDX1gfFvIo1JZ-2">
          <mxGeometry width="50" height="50" relative="1" as="geometry">
            <mxPoint x="213" y="61" as="sourcePoint" />
            <mxPoint x="580" y="373" as="targetPoint" />
            <Array as="points">
              <mxPoint x="570" y="70" />
            </Array>
          </mxGeometry>
        </mxCell>
        <mxCell id="ghUmqVAMidtjxxyms5nO-1" value="2" style="edgeLabel;html=1;align=center;verticalAlign=middle;resizable=0;points=[];" vertex="1" connectable="0" parent="w4UUT2ZMDX1gfFvIo1JZ-7">
          <mxGeometry x="-0.9452" y="1" relative="1" as="geometry">
            <mxPoint as="offset" />
          </mxGeometry>
        </mxCell>
        <mxCell id="ghUmqVAMidtjxxyms5nO-2" value="Log in" style="edgeLabel;html=1;align=center;verticalAlign=middle;resizable=0;points=[];" vertex="1" connectable="0" parent="w4UUT2ZMDX1gfFvIo1JZ-7">
          <mxGeometry x="-0.7867" relative="1" as="geometry">
            <mxPoint as="offset" />
          </mxGeometry>
        </mxCell>
        <mxCell id="ghUmqVAMidtjxxyms5nO-3" value="Email" style="edgeLabel;html=1;align=center;verticalAlign=middle;resizable=0;points=[];" vertex="1" connectable="0" parent="w4UUT2ZMDX1gfFvIo1JZ-7">
          <mxGeometry x="-0.5306" y="1" relative="1" as="geometry">
            <mxPoint as="offset" />
          </mxGeometry>
        </mxCell>
        <mxCell id="w4UUT2ZMDX1gfFvIo1JZ-8" value="" style="endArrow=classic;html=1;rounded=0;exitX=1.019;exitY=0.35;exitDx=0;exitDy=0;exitPerimeter=0;entryX=0.445;entryY=-0.018;entryDx=0;entryDy=0;entryPerimeter=0;" edge="1" parent="1" source="w4UUT2ZMDX1gfFvIo1JZ-1" target="w4UUT2ZMDX1gfFvIo1JZ-2">
          <mxGeometry width="50" height="50" relative="1" as="geometry">
            <mxPoint x="213" y="83" as="sourcePoint" />
            <mxPoint x="565" y="370" as="targetPoint" />
            <Array as="points">
              <mxPoint x="550" y="96" />
            </Array>
          </mxGeometry>
        </mxCell>
        <mxCell id="ghUmqVAMidtjxxyms5nO-6" value="3" style="edgeLabel;html=1;align=center;verticalAlign=middle;resizable=0;points=[];" vertex="1" connectable="0" parent="w4UUT2ZMDX1gfFvIo1JZ-8">
          <mxGeometry x="-0.9312" y="-1" relative="1" as="geometry">
            <mxPoint as="offset" />
          </mxGeometry>
        </mxCell>
        <mxCell id="XIBgAlaEnvF4AKtUmTKH-4" value="Search Item" style="edgeLabel;html=1;align=center;verticalAlign=middle;resizable=0;points=[];" vertex="1" connectable="0" parent="w4UUT2ZMDX1gfFvIo1JZ-8">
          <mxGeometry x="-0.6914" y="-2" relative="1" as="geometry">
            <mxPoint as="offset" />
          </mxGeometry>
        </mxCell>
        <mxCell id="w4UUT2ZMDX1gfFvIo1JZ-9" value="" style="endArrow=classic;html=1;rounded=0;exitX=1.013;exitY=0.463;exitDx=0;exitDy=0;exitPerimeter=0;entryX=0.273;entryY=0.073;entryDx=0;entryDy=0;entryPerimeter=0;" edge="1" parent="1" source="w4UUT2ZMDX1gfFvIo1JZ-1" target="w4UUT2ZMDX1gfFvIo1JZ-2">
          <mxGeometry width="50" height="50" relative="1" as="geometry">
            <mxPoint x="213" y="106" as="sourcePoint" />
            <mxPoint x="544" y="372" as="targetPoint" />
            <Array as="points">
              <mxPoint x="530" y="114" />
            </Array>
          </mxGeometry>
        </mxCell>
        <mxCell id="XIBgAlaEnvF4AKtUmTKH-7" value="4" style="edgeLabel;html=1;align=center;verticalAlign=middle;resizable=0;points=[];" vertex="1" connectable="0" parent="w4UUT2ZMDX1gfFvIo1JZ-9">
          <mxGeometry x="-0.9109" relative="1" as="geometry">
            <mxPoint as="offset" />
          </mxGeometry>
        </mxCell>
        <mxCell id="YEj0jUiBieA1fzrgmOjt-2" value="Place Order" style="edgeLabel;html=1;align=center;verticalAlign=middle;resizable=0;points=[];" vertex="1" connectable="0" parent="w4UUT2ZMDX1gfFvIo1JZ-9">
          <mxGeometry x="-0.416" relative="1" as="geometry">
            <mxPoint as="offset" />
          </mxGeometry>
        </mxCell>
        <mxCell id="w4UUT2ZMDX1gfFvIo1JZ-11" value="" style="endArrow=classic;html=1;rounded=0;exitX=1.006;exitY=0.563;exitDx=0;exitDy=0;exitPerimeter=0;entryX=0;entryY=0;entryDx=0;entryDy=0;" edge="1" parent="1" source="w4UUT2ZMDX1gfFvIo1JZ-1" target="w4UUT2ZMDX1gfFvIo1JZ-2">
          <mxGeometry width="50" height="50" relative="1" as="geometry">
            <mxPoint x="212" y="124" as="sourcePoint" />
            <mxPoint x="540" y="378" as="targetPoint" />
            <Array as="points">
              <mxPoint x="510" y="130" />
            </Array>
          </mxGeometry>
        </mxCell>
        <mxCell id="yR7hPfkgPnFNNc8d7Jtm-3" value="5" style="edgeLabel;html=1;align=center;verticalAlign=middle;resizable=0;points=[];" vertex="1" connectable="0" parent="w4UUT2ZMDX1gfFvIo1JZ-11">
          <mxGeometry x="-0.9134" relative="1" as="geometry">
            <mxPoint as="offset" />
          </mxGeometry>
        </mxCell>
        <mxCell id="LCgWgRUMV8twy-D6KFzv-1" value="Payment" style="edgeLabel;html=1;align=center;verticalAlign=middle;resizable=0;points=[];" vertex="1" connectable="0" parent="w4UUT2ZMDX1gfFvIo1JZ-11">
          <mxGeometry x="-0.6937" y="-1" relative="1" as="geometry">
            <mxPoint as="offset" />
          </mxGeometry>
        </mxCell>
        <mxCell id="w4UUT2ZMDX1gfFvIo1JZ-12" value="" style="endArrow=classic;html=1;rounded=0;entryX=0.069;entryY=1.019;entryDx=0;entryDy=0;entryPerimeter=0;exitX=0.227;exitY=0.964;exitDx=0;exitDy=0;exitPerimeter=0;" edge="1" parent="1" source="w4UUT2ZMDX1gfFvIo1JZ-2" target="w4UUT2ZMDX1gfFvIo1JZ-1">
          <mxGeometry width="50" height="50" relative="1" as="geometry">
            <mxPoint x="520" y="460" as="sourcePoint" />
            <mxPoint x="450" y="230" as="targetPoint" />
            <Array as="points">
              <mxPoint x="51" y="470" />
            </Array>
          </mxGeometry>
        </mxCell>
        <mxCell id="X4kUy2XX1dMS1l6dVzqW-4" value="Responce" style="edgeLabel;html=1;align=center;verticalAlign=middle;resizable=0;points=[];" vertex="1" connectable="0" parent="w4UUT2ZMDX1gfFvIo1JZ-12">
          <mxGeometry x="0.2254" y="1" relative="1" as="geometry">
            <mxPoint as="offset" />
          </mxGeometry>
        </mxCell>
        <mxCell id="X4kUy2XX1dMS1l6dVzqW-5" value="1" style="edgeLabel;html=1;align=center;verticalAlign=middle;resizable=0;points=[];" vertex="1" connectable="0" parent="w4UUT2ZMDX1gfFvIo1JZ-12">
          <mxGeometry x="0.9218" y="-2" relative="1" as="geometry">
            <mxPoint as="offset" />
          </mxGeometry>
        </mxCell>
        <mxCell id="X4kUy2XX1dMS1l6dVzqW-6" value="Authentication" style="edgeLabel;html=1;align=center;verticalAlign=middle;resizable=0;points=[];" vertex="1" connectable="0" parent="w4UUT2ZMDX1gfFvIo1JZ-12">
          <mxGeometry x="-0.085" y="-1" relative="1" as="geometry">
            <mxPoint as="offset" />
          </mxGeometry>
        </mxCell>
        <mxCell id="w4UUT2ZMDX1gfFvIo1JZ-13" value="" style="endArrow=classic;html=1;rounded=0;entryX=0.2;entryY=1.025;entryDx=0;entryDy=0;entryPerimeter=0;" edge="1" parent="1" target="w4UUT2ZMDX1gfFvIo1JZ-1">
          <mxGeometry width="50" height="50" relative="1" as="geometry">
            <mxPoint x="510" y="450" as="sourcePoint" />
            <mxPoint x="61" y="213" as="targetPoint" />
            <Array as="points">
              <mxPoint x="72" y="450" />
            </Array>
          </mxGeometry>
        </mxCell>
        <mxCell id="ghUmqVAMidtjxxyms5nO-4" value="2" style="edgeLabel;html=1;align=center;verticalAlign=middle;resizable=0;points=[];" vertex="1" connectable="0" parent="w4UUT2ZMDX1gfFvIo1JZ-13">
          <mxGeometry x="0.9064" y="-1" relative="1" as="geometry">
            <mxPoint as="offset" />
          </mxGeometry>
        </mxCell>
        <mxCell id="ghUmqVAMidtjxxyms5nO-5" value="Authentication" style="edgeLabel;html=1;align=center;verticalAlign=middle;resizable=0;points=[];" vertex="1" connectable="0" parent="w4UUT2ZMDX1gfFvIo1JZ-13">
          <mxGeometry x="0.1637" y="1" relative="1" as="geometry">
            <mxPoint as="offset" />
          </mxGeometry>
        </mxCell>
        <mxCell id="w4UUT2ZMDX1gfFvIo1JZ-14" value="" style="endArrow=classic;html=1;rounded=0;entryX=0.331;entryY=1.019;entryDx=0;entryDy=0;entryPerimeter=0;exitX=0;exitY=0.636;exitDx=0;exitDy=0;exitPerimeter=0;" edge="1" parent="1" source="w4UUT2ZMDX1gfFvIo1JZ-2" target="w4UUT2ZMDX1gfFvIo1JZ-1">
          <mxGeometry width="50" height="50" relative="1" as="geometry">
            <mxPoint x="584" y="423" as="sourcePoint" />
            <mxPoint x="110" y="160" as="targetPoint" />
            <Array as="points">
              <mxPoint x="93" y="427" />
            </Array>
          </mxGeometry>
        </mxCell>
        <mxCell id="XIBgAlaEnvF4AKtUmTKH-5" value="3" style="edgeLabel;html=1;align=center;verticalAlign=middle;resizable=0;points=[];" vertex="1" connectable="0" parent="w4UUT2ZMDX1gfFvIo1JZ-14">
          <mxGeometry x="0.9019" y="-1" relative="1" as="geometry">
            <mxPoint as="offset" />
          </mxGeometry>
        </mxCell>
        <mxCell id="XIBgAlaEnvF4AKtUmTKH-6" value="View Item" style="edgeLabel;html=1;align=center;verticalAlign=middle;resizable=0;points=[];" vertex="1" connectable="0" parent="w4UUT2ZMDX1gfFvIo1JZ-14">
          <mxGeometry x="0.0777" y="3" relative="1" as="geometry">
            <mxPoint as="offset" />
          </mxGeometry>
        </mxCell>
        <mxCell id="w4UUT2ZMDX1gfFvIo1JZ-15" value="" style="endArrow=classic;html=1;rounded=0;entryX=0.456;entryY=1.013;entryDx=0;entryDy=0;entryPerimeter=0;exitX=-0.027;exitY=0.445;exitDx=0;exitDy=0;exitPerimeter=0;" edge="1" parent="1" source="w4UUT2ZMDX1gfFvIo1JZ-2" target="w4UUT2ZMDX1gfFvIo1JZ-1">
          <mxGeometry width="50" height="50" relative="1" as="geometry">
            <mxPoint x="610" y="383" as="sourcePoint" />
            <mxPoint x="136" y="120" as="targetPoint" />
            <Array as="points">
              <mxPoint x="113" y="409" />
            </Array>
          </mxGeometry>
        </mxCell>
        <mxCell id="yR7hPfkgPnFNNc8d7Jtm-1" value="Confirm Order" style="edgeLabel;html=1;align=center;verticalAlign=middle;resizable=0;points=[];" vertex="1" connectable="0" parent="w4UUT2ZMDX1gfFvIo1JZ-15">
          <mxGeometry x="-0.1233" relative="1" as="geometry">
            <mxPoint as="offset" />
          </mxGeometry>
        </mxCell>
        <mxCell id="yR7hPfkgPnFNNc8d7Jtm-2" value="4" style="edgeLabel;html=1;align=center;verticalAlign=middle;resizable=0;points=[];" vertex="1" connectable="0" parent="w4UUT2ZMDX1gfFvIo1JZ-15">
          <mxGeometry x="0.8818" relative="1" as="geometry">
            <mxPoint as="offset" />
          </mxGeometry>
        </mxCell>
        <mxCell id="w4UUT2ZMDX1gfFvIo1JZ-16" value="" style="endArrow=classic;html=1;rounded=0;entryX=0.569;entryY=1.006;entryDx=0;entryDy=0;entryPerimeter=0;exitX=0.009;exitY=0.3;exitDx=0;exitDy=0;exitPerimeter=0;" edge="1" parent="1" source="w4UUT2ZMDX1gfFvIo1JZ-2" target="w4UUT2ZMDX1gfFvIo1JZ-1">
          <mxGeometry width="50" height="50" relative="1" as="geometry">
            <mxPoint x="507" y="419" as="sourcePoint" />
            <mxPoint x="123" y="212" as="targetPoint" />
            <Array as="points">
              <mxPoint x="130" y="390" />
            </Array>
          </mxGeometry>
        </mxCell>
        <mxCell id="LCgWgRUMV8twy-D6KFzv-2" value="Payment Successfully" style="edgeLabel;html=1;align=center;verticalAlign=middle;resizable=0;points=[];" vertex="1" connectable="0" parent="w4UUT2ZMDX1gfFvIo1JZ-16">
          <mxGeometry x="-0.4143" y="-1" relative="1" as="geometry">
            <mxPoint as="offset" />
          </mxGeometry>
        </mxCell>
        <mxCell id="LCgWgRUMV8twy-D6KFzv-3" value="5" style="edgeLabel;html=1;align=center;verticalAlign=middle;resizable=0;points=[];" vertex="1" connectable="0" parent="w4UUT2ZMDX1gfFvIo1JZ-16">
          <mxGeometry x="0.8571" y="-2" relative="1" as="geometry">
            <mxPoint as="offset" />
          </mxGeometry>
        </mxCell>
      </root>
    </mxGraphModel>
  </diagram>
  <diagram name="0 Level Admin" id="Pq9-tMUMcQpzcd8G2SX9">
    <mxGraphModel dx="864" dy="516" grid="1" gridSize="10" guides="1" tooltips="1" connect="1" arrows="1" fold="1" page="1" pageScale="1" pageWidth="850" pageHeight="1100" math="0" shadow="0">
      <root>
        <mxCell id="lex1iyNnGQX5HV-vXVGd-0" />
        <mxCell id="lex1iyNnGQX5HV-vXVGd-1" parent="lex1iyNnGQX5HV-vXVGd-0" />
        <mxCell id="lex1iyNnGQX5HV-vXVGd-2" value="Admin" style="whiteSpace=wrap;html=1;aspect=fixed;" vertex="1" parent="lex1iyNnGQX5HV-vXVGd-1">
          <mxGeometry x="40" y="40" width="160" height="160" as="geometry" />
        </mxCell>
        <mxCell id="lex1iyNnGQX5HV-vXVGd-3" value="Database" style="ellipse;whiteSpace=wrap;html=1;aspect=fixed;" vertex="1" parent="lex1iyNnGQX5HV-vXVGd-1">
          <mxGeometry x="500" y="360" width="110" height="110" as="geometry" />
        </mxCell>
        <mxCell id="lex1iyNnGQX5HV-vXVGd-4" value="" style="endArrow=classic;html=1;rounded=0;exitX=1.019;exitY=0.069;exitDx=0;exitDy=0;exitPerimeter=0;" edge="1" parent="lex1iyNnGQX5HV-vXVGd-1" source="lex1iyNnGQX5HV-vXVGd-2">
          <mxGeometry width="50" height="50" relative="1" as="geometry">
            <mxPoint x="400" y="280" as="sourcePoint" />
            <mxPoint x="590" y="370" as="targetPoint" />
            <Array as="points">
              <mxPoint x="590" y="50" />
            </Array>
          </mxGeometry>
        </mxCell>
        <mxCell id="lex1iyNnGQX5HV-vXVGd-5" value="1" style="edgeLabel;html=1;align=center;verticalAlign=middle;resizable=0;points=[];" vertex="1" connectable="0" parent="lex1iyNnGQX5HV-vXVGd-4">
          <mxGeometry x="-0.952" y="2" relative="1" as="geometry">
            <mxPoint as="offset" />
          </mxGeometry>
        </mxCell>
        <mxCell id="lex1iyNnGQX5HV-vXVGd-6" value="Login" style="edgeLabel;html=1;align=center;verticalAlign=middle;resizable=0;points=[];" vertex="1" connectable="0" parent="lex1iyNnGQX5HV-vXVGd-4">
          <mxGeometry x="-0.7993" y="-2" relative="1" as="geometry">
            <mxPoint as="offset" />
          </mxGeometry>
        </mxCell>
        <mxCell id="lex1iyNnGQX5HV-vXVGd-7" value="Email" style="edgeLabel;html=1;align=center;verticalAlign=middle;resizable=0;points=[];" vertex="1" connectable="0" parent="lex1iyNnGQX5HV-vXVGd-4">
          <mxGeometry x="-0.4909" y="3" relative="1" as="geometry">
            <mxPoint as="offset" />
          </mxGeometry>
        </mxCell>
        <mxCell id="lex1iyNnGQX5HV-vXVGd-8" value="" style="endArrow=classic;html=1;rounded=0;exitX=1.019;exitY=0.206;exitDx=0;exitDy=0;exitPerimeter=0;entryX=0.655;entryY=-0.009;entryDx=0;entryDy=0;entryPerimeter=0;" edge="1" parent="lex1iyNnGQX5HV-vXVGd-1" source="lex1iyNnGQX5HV-vXVGd-2" target="lex1iyNnGQX5HV-vXVGd-3">
          <mxGeometry width="50" height="50" relative="1" as="geometry">
            <mxPoint x="213" y="61" as="sourcePoint" />
            <mxPoint x="580" y="373" as="targetPoint" />
            <Array as="points">
              <mxPoint x="570" y="70" />
            </Array>
          </mxGeometry>
        </mxCell>
        <mxCell id="lex1iyNnGQX5HV-vXVGd-9" value="2" style="edgeLabel;html=1;align=center;verticalAlign=middle;resizable=0;points=[];" vertex="1" connectable="0" parent="lex1iyNnGQX5HV-vXVGd-8">
          <mxGeometry x="-0.9452" y="1" relative="1" as="geometry">
            <mxPoint as="offset" />
          </mxGeometry>
        </mxCell>
        <mxCell id="lex1iyNnGQX5HV-vXVGd-10" value="Manage Catagory" style="edgeLabel;html=1;align=center;verticalAlign=middle;resizable=0;points=[];" vertex="1" connectable="0" parent="lex1iyNnGQX5HV-vXVGd-8">
          <mxGeometry x="-0.7867" relative="1" as="geometry">
            <mxPoint x="30" as="offset" />
          </mxGeometry>
        </mxCell>
        <mxCell id="lex1iyNnGQX5HV-vXVGd-12" value="" style="endArrow=classic;html=1;rounded=0;exitX=1.019;exitY=0.35;exitDx=0;exitDy=0;exitPerimeter=0;entryX=0.445;entryY=-0.018;entryDx=0;entryDy=0;entryPerimeter=0;" edge="1" parent="lex1iyNnGQX5HV-vXVGd-1" source="lex1iyNnGQX5HV-vXVGd-2" target="lex1iyNnGQX5HV-vXVGd-3">
          <mxGeometry width="50" height="50" relative="1" as="geometry">
            <mxPoint x="213" y="83" as="sourcePoint" />
            <mxPoint x="565" y="370" as="targetPoint" />
            <Array as="points">
              <mxPoint x="550" y="96" />
            </Array>
          </mxGeometry>
        </mxCell>
        <mxCell id="lex1iyNnGQX5HV-vXVGd-13" value="3" style="edgeLabel;html=1;align=center;verticalAlign=middle;resizable=0;points=[];" vertex="1" connectable="0" parent="lex1iyNnGQX5HV-vXVGd-12">
          <mxGeometry x="-0.9312" y="-1" relative="1" as="geometry">
            <mxPoint as="offset" />
          </mxGeometry>
        </mxCell>
        <mxCell id="lex1iyNnGQX5HV-vXVGd-14" value="Manage Item" style="edgeLabel;html=1;align=center;verticalAlign=middle;resizable=0;points=[];" vertex="1" connectable="0" parent="lex1iyNnGQX5HV-vXVGd-12">
          <mxGeometry x="-0.6914" y="-2" relative="1" as="geometry">
            <mxPoint x="30" as="offset" />
          </mxGeometry>
        </mxCell>
        <mxCell id="lex1iyNnGQX5HV-vXVGd-15" value="" style="endArrow=classic;html=1;rounded=0;exitX=1.013;exitY=0.463;exitDx=0;exitDy=0;exitPerimeter=0;entryX=0.273;entryY=0.073;entryDx=0;entryDy=0;entryPerimeter=0;" edge="1" parent="lex1iyNnGQX5HV-vXVGd-1" source="lex1iyNnGQX5HV-vXVGd-2" target="lex1iyNnGQX5HV-vXVGd-3">
          <mxGeometry width="50" height="50" relative="1" as="geometry">
            <mxPoint x="213" y="106" as="sourcePoint" />
            <mxPoint x="544" y="372" as="targetPoint" />
            <Array as="points">
              <mxPoint x="530" y="114" />
            </Array>
          </mxGeometry>
        </mxCell>
        <mxCell id="lex1iyNnGQX5HV-vXVGd-16" value="4" style="edgeLabel;html=1;align=center;verticalAlign=middle;resizable=0;points=[];" vertex="1" connectable="0" parent="lex1iyNnGQX5HV-vXVGd-15">
          <mxGeometry x="-0.9109" relative="1" as="geometry">
            <mxPoint as="offset" />
          </mxGeometry>
        </mxCell>
        <mxCell id="lex1iyNnGQX5HV-vXVGd-17" value="Manage Order" style="edgeLabel;html=1;align=center;verticalAlign=middle;resizable=0;points=[];" vertex="1" connectable="0" parent="lex1iyNnGQX5HV-vXVGd-15">
          <mxGeometry x="-0.416" relative="1" as="geometry">
            <mxPoint as="offset" />
          </mxGeometry>
        </mxCell>
        <mxCell id="lex1iyNnGQX5HV-vXVGd-18" value="" style="endArrow=classic;html=1;rounded=0;exitX=1.006;exitY=0.563;exitDx=0;exitDy=0;exitPerimeter=0;entryX=0;entryY=0;entryDx=0;entryDy=0;" edge="1" parent="lex1iyNnGQX5HV-vXVGd-1" source="lex1iyNnGQX5HV-vXVGd-2" target="lex1iyNnGQX5HV-vXVGd-3">
          <mxGeometry width="50" height="50" relative="1" as="geometry">
            <mxPoint x="212" y="124" as="sourcePoint" />
            <mxPoint x="540" y="378" as="targetPoint" />
            <Array as="points">
              <mxPoint x="510" y="130" />
            </Array>
          </mxGeometry>
        </mxCell>
        <mxCell id="lex1iyNnGQX5HV-vXVGd-19" value="5" style="edgeLabel;html=1;align=center;verticalAlign=middle;resizable=0;points=[];" vertex="1" connectable="0" parent="lex1iyNnGQX5HV-vXVGd-18">
          <mxGeometry x="-0.9134" relative="1" as="geometry">
            <mxPoint as="offset" />
          </mxGeometry>
        </mxCell>
        <mxCell id="lex1iyNnGQX5HV-vXVGd-20" value="Manage Report" style="edgeLabel;html=1;align=center;verticalAlign=middle;resizable=0;points=[];" vertex="1" connectable="0" parent="lex1iyNnGQX5HV-vXVGd-18">
          <mxGeometry x="-0.6937" y="-1" relative="1" as="geometry">
            <mxPoint x="140" as="offset" />
          </mxGeometry>
        </mxCell>
        <mxCell id="lex1iyNnGQX5HV-vXVGd-21" value="" style="endArrow=classic;html=1;rounded=0;entryX=0.069;entryY=1.019;entryDx=0;entryDy=0;entryPerimeter=0;exitX=0.227;exitY=0.964;exitDx=0;exitDy=0;exitPerimeter=0;" edge="1" parent="lex1iyNnGQX5HV-vXVGd-1" source="lex1iyNnGQX5HV-vXVGd-3" target="lex1iyNnGQX5HV-vXVGd-2">
          <mxGeometry width="50" height="50" relative="1" as="geometry">
            <mxPoint x="520" y="460" as="sourcePoint" />
            <mxPoint x="450" y="230" as="targetPoint" />
            <Array as="points">
              <mxPoint x="51" y="470" />
            </Array>
          </mxGeometry>
        </mxCell>
        <mxCell id="lex1iyNnGQX5HV-vXVGd-22" value="Responce" style="edgeLabel;html=1;align=center;verticalAlign=middle;resizable=0;points=[];" vertex="1" connectable="0" parent="lex1iyNnGQX5HV-vXVGd-21">
          <mxGeometry x="0.2254" y="1" relative="1" as="geometry">
            <mxPoint x="10" as="offset" />
          </mxGeometry>
        </mxCell>
        <mxCell id="lex1iyNnGQX5HV-vXVGd-23" value="1" style="edgeLabel;html=1;align=center;verticalAlign=middle;resizable=0;points=[];" vertex="1" connectable="0" parent="lex1iyNnGQX5HV-vXVGd-21">
          <mxGeometry x="0.9218" y="-2" relative="1" as="geometry">
            <mxPoint as="offset" />
          </mxGeometry>
        </mxCell>
        <mxCell id="lex1iyNnGQX5HV-vXVGd-24" value="Authentication" style="edgeLabel;html=1;align=center;verticalAlign=middle;resizable=0;points=[];" vertex="1" connectable="0" parent="lex1iyNnGQX5HV-vXVGd-21">
          <mxGeometry x="-0.085" y="-1" relative="1" as="geometry">
            <mxPoint x="80" as="offset" />
          </mxGeometry>
        </mxCell>
        <mxCell id="lex1iyNnGQX5HV-vXVGd-25" value="" style="endArrow=classic;html=1;rounded=0;entryX=0.2;entryY=1.025;entryDx=0;entryDy=0;entryPerimeter=0;" edge="1" parent="lex1iyNnGQX5HV-vXVGd-1" target="lex1iyNnGQX5HV-vXVGd-2">
          <mxGeometry width="50" height="50" relative="1" as="geometry">
            <mxPoint x="510" y="450" as="sourcePoint" />
            <mxPoint x="61" y="213" as="targetPoint" />
            <Array as="points">
              <mxPoint x="72" y="450" />
            </Array>
          </mxGeometry>
        </mxCell>
        <mxCell id="lex1iyNnGQX5HV-vXVGd-26" value="2" style="edgeLabel;html=1;align=center;verticalAlign=middle;resizable=0;points=[];" vertex="1" connectable="0" parent="lex1iyNnGQX5HV-vXVGd-25">
          <mxGeometry x="0.9064" y="-1" relative="1" as="geometry">
            <mxPoint as="offset" />
          </mxGeometry>
        </mxCell>
        <mxCell id="lex1iyNnGQX5HV-vXVGd-27" value="Update Catagory" style="edgeLabel;html=1;align=center;verticalAlign=middle;resizable=0;points=[];" vertex="1" connectable="0" parent="lex1iyNnGQX5HV-vXVGd-25">
          <mxGeometry x="0.1637" y="1" relative="1" as="geometry">
            <mxPoint x="20" as="offset" />
          </mxGeometry>
        </mxCell>
        <mxCell id="lex1iyNnGQX5HV-vXVGd-28" value="" style="endArrow=classic;html=1;rounded=0;entryX=0.331;entryY=1.019;entryDx=0;entryDy=0;entryPerimeter=0;exitX=0;exitY=0.636;exitDx=0;exitDy=0;exitPerimeter=0;" edge="1" parent="lex1iyNnGQX5HV-vXVGd-1" source="lex1iyNnGQX5HV-vXVGd-3" target="lex1iyNnGQX5HV-vXVGd-2">
          <mxGeometry width="50" height="50" relative="1" as="geometry">
            <mxPoint x="584" y="423" as="sourcePoint" />
            <mxPoint x="110" y="160" as="targetPoint" />
            <Array as="points">
              <mxPoint x="93" y="427" />
            </Array>
          </mxGeometry>
        </mxCell>
        <mxCell id="lex1iyNnGQX5HV-vXVGd-29" value="3" style="edgeLabel;html=1;align=center;verticalAlign=middle;resizable=0;points=[];" vertex="1" connectable="0" parent="lex1iyNnGQX5HV-vXVGd-28">
          <mxGeometry x="0.9019" y="-1" relative="1" as="geometry">
            <mxPoint as="offset" />
          </mxGeometry>
        </mxCell>
        <mxCell id="lex1iyNnGQX5HV-vXVGd-30" value="Update Item" style="edgeLabel;html=1;align=center;verticalAlign=middle;resizable=0;points=[];" vertex="1" connectable="0" parent="lex1iyNnGQX5HV-vXVGd-28">
          <mxGeometry x="0.0777" y="3" relative="1" as="geometry">
            <mxPoint x="50" as="offset" />
          </mxGeometry>
        </mxCell>
        <mxCell id="lex1iyNnGQX5HV-vXVGd-31" value="" style="endArrow=classic;html=1;rounded=0;entryX=0.456;entryY=1.013;entryDx=0;entryDy=0;entryPerimeter=0;exitX=-0.027;exitY=0.445;exitDx=0;exitDy=0;exitPerimeter=0;" edge="1" parent="lex1iyNnGQX5HV-vXVGd-1" source="lex1iyNnGQX5HV-vXVGd-3" target="lex1iyNnGQX5HV-vXVGd-2">
          <mxGeometry width="50" height="50" relative="1" as="geometry">
            <mxPoint x="610" y="383" as="sourcePoint" />
            <mxPoint x="136" y="120" as="targetPoint" />
            <Array as="points">
              <mxPoint x="113" y="409" />
            </Array>
          </mxGeometry>
        </mxCell>
        <mxCell id="lex1iyNnGQX5HV-vXVGd-32" value="Update Order" style="edgeLabel;html=1;align=center;verticalAlign=middle;resizable=0;points=[];" vertex="1" connectable="0" parent="lex1iyNnGQX5HV-vXVGd-31">
          <mxGeometry x="-0.1233" relative="1" as="geometry">
            <mxPoint x="20" as="offset" />
          </mxGeometry>
        </mxCell>
        <mxCell id="lex1iyNnGQX5HV-vXVGd-33" value="4" style="edgeLabel;html=1;align=center;verticalAlign=middle;resizable=0;points=[];" vertex="1" connectable="0" parent="lex1iyNnGQX5HV-vXVGd-31">
          <mxGeometry x="0.8818" relative="1" as="geometry">
            <mxPoint as="offset" />
          </mxGeometry>
        </mxCell>
        <mxCell id="lex1iyNnGQX5HV-vXVGd-34" value="" style="endArrow=classic;html=1;rounded=0;entryX=0.569;entryY=1.006;entryDx=0;entryDy=0;entryPerimeter=0;exitX=0.009;exitY=0.3;exitDx=0;exitDy=0;exitPerimeter=0;" edge="1" parent="lex1iyNnGQX5HV-vXVGd-1" source="lex1iyNnGQX5HV-vXVGd-3" target="lex1iyNnGQX5HV-vXVGd-2">
          <mxGeometry width="50" height="50" relative="1" as="geometry">
            <mxPoint x="507" y="419" as="sourcePoint" />
            <mxPoint x="123" y="212" as="targetPoint" />
            <Array as="points">
              <mxPoint x="130" y="390" />
            </Array>
          </mxGeometry>
        </mxCell>
        <mxCell id="lex1iyNnGQX5HV-vXVGd-35" value="Update Report" style="edgeLabel;html=1;align=center;verticalAlign=middle;resizable=0;points=[];" vertex="1" connectable="0" parent="lex1iyNnGQX5HV-vXVGd-34">
          <mxGeometry x="-0.4143" y="-1" relative="1" as="geometry">
            <mxPoint as="offset" />
          </mxGeometry>
        </mxCell>
        <mxCell id="lex1iyNnGQX5HV-vXVGd-36" value="5" style="edgeLabel;html=1;align=center;verticalAlign=middle;resizable=0;points=[];" vertex="1" connectable="0" parent="lex1iyNnGQX5HV-vXVGd-34">
          <mxGeometry x="0.8571" y="-2" relative="1" as="geometry">
            <mxPoint y="-10" as="offset" />
          </mxGeometry>
        </mxCell>
      </root>
    </mxGraphModel>
  </diagram>
  <diagram id="JUc51EiGc2QA_OcoeTxT" name="1 Level User">
    <mxGraphModel dx="864" dy="516" grid="1" gridSize="10" guides="1" tooltips="1" connect="1" arrows="1" fold="1" page="1" pageScale="1" pageWidth="850" pageHeight="1100" math="0" shadow="0">
      <root>
        <mxCell id="0" />
        <mxCell id="1" parent="0" />
        <mxCell id="XPwr8HihlaKh916IyaCH-34" value="User" style="shape=partialRectangle;whiteSpace=wrap;html=1;left=0;right=0;fillColor=none;" vertex="1" parent="1">
          <mxGeometry x="80" y="40" width="120" height="60" as="geometry" />
        </mxCell>
        <mxCell id="XPwr8HihlaKh916IyaCH-35" value="Register" style="ellipse;shape=doubleEllipse;whiteSpace=wrap;html=1;aspect=fixed;" vertex="1" parent="1">
          <mxGeometry x="360" y="30" width="80" height="80" as="geometry" />
        </mxCell>
        <mxCell id="XPwr8HihlaKh916IyaCH-36" value="users" style="shape=partialRectangle;whiteSpace=wrap;html=1;left=0;right=0;fillColor=none;" vertex="1" parent="1">
          <mxGeometry x="600" y="40" width="120" height="60" as="geometry" />
        </mxCell>
        <mxCell id="XPwr8HihlaKh916IyaCH-37" value="" style="endArrow=classic;html=1;rounded=0;entryX=0.025;entryY=0.288;entryDx=0;entryDy=0;entryPerimeter=0;" edge="1" parent="1" target="XPwr8HihlaKh916IyaCH-35">
          <mxGeometry width="50" height="50" relative="1" as="geometry">
            <mxPoint x="210" y="53" as="sourcePoint" />
            <mxPoint x="350" y="70" as="targetPoint" />
          </mxGeometry>
        </mxCell>
        <mxCell id="z0-alruZ7ZSNQ_fgsvlK-8" value="email/password" style="edgeLabel;html=1;align=center;verticalAlign=middle;resizable=0;points=[];" vertex="1" connectable="0" parent="XPwr8HihlaKh916IyaCH-37">
          <mxGeometry x="-0.4474" y="-1" relative="1" as="geometry">
            <mxPoint x="20" as="offset" />
          </mxGeometry>
        </mxCell>
        <mxCell id="XPwr8HihlaKh916IyaCH-38" value="" style="endArrow=classic;html=1;rounded=0;entryX=0;entryY=0.25;entryDx=0;entryDy=0;exitX=0.975;exitY=0.325;exitDx=0;exitDy=0;exitPerimeter=0;" edge="1" parent="1" source="XPwr8HihlaKh916IyaCH-35" target="XPwr8HihlaKh916IyaCH-36">
          <mxGeometry width="50" height="50" relative="1" as="geometry">
            <mxPoint x="220" y="63" as="sourcePoint" />
            <mxPoint x="372" y="63" as="targetPoint" />
          </mxGeometry>
        </mxCell>
        <mxCell id="z0-alruZ7ZSNQ_fgsvlK-10" value="authentication" style="edgeLabel;html=1;align=center;verticalAlign=middle;resizable=0;points=[];" vertex="1" connectable="0" parent="XPwr8HihlaKh916IyaCH-38">
          <mxGeometry x="-0.0495" y="-1" relative="1" as="geometry">
            <mxPoint as="offset" />
          </mxGeometry>
        </mxCell>
        <mxCell id="XPwr8HihlaKh916IyaCH-40" value="validate" style="endArrow=classic;html=1;rounded=0;entryX=0.95;entryY=0.725;entryDx=0;entryDy=0;entryPerimeter=0;exitX=0;exitY=0.75;exitDx=0;exitDy=0;" edge="1" parent="1" source="XPwr8HihlaKh916IyaCH-36" target="XPwr8HihlaKh916IyaCH-35">
          <mxGeometry width="50" height="50" relative="1" as="geometry">
            <mxPoint x="400" y="290" as="sourcePoint" />
            <mxPoint x="450" y="240" as="targetPoint" />
          </mxGeometry>
        </mxCell>
        <mxCell id="XPwr8HihlaKh916IyaCH-41" value="Response" style="endArrow=classic;html=1;rounded=0;entryX=1;entryY=0.688;entryDx=0;entryDy=0;entryPerimeter=0;exitX=0.025;exitY=0.688;exitDx=0;exitDy=0;exitPerimeter=0;" edge="1" parent="1" source="XPwr8HihlaKh916IyaCH-35">
          <mxGeometry width="50" height="50" relative="1" as="geometry">
            <mxPoint x="360" y="85" as="sourcePoint" />
            <mxPoint x="200" y="85" as="targetPoint" />
          </mxGeometry>
        </mxCell>
        <mxCell id="z0-alruZ7ZSNQ_fgsvlK-12" value="User" style="shape=partialRectangle;whiteSpace=wrap;html=1;left=0;right=0;fillColor=none;" vertex="1" parent="1">
          <mxGeometry x="80" y="131" width="120" height="60" as="geometry" />
        </mxCell>
        <mxCell id="z0-alruZ7ZSNQ_fgsvlK-13" value="users" style="shape=partialRectangle;whiteSpace=wrap;html=1;left=0;right=0;fillColor=none;" vertex="1" parent="1">
          <mxGeometry x="600" y="131" width="120" height="60" as="geometry" />
        </mxCell>
        <mxCell id="z0-alruZ7ZSNQ_fgsvlK-14" value="" style="endArrow=classic;html=1;rounded=0;entryX=0.025;entryY=0.288;entryDx=0;entryDy=0;entryPerimeter=0;" edge="1" parent="1">
          <mxGeometry width="50" height="50" relative="1" as="geometry">
            <mxPoint x="210" y="144" as="sourcePoint" />
            <mxPoint x="362" y="144" as="targetPoint" />
          </mxGeometry>
        </mxCell>
        <mxCell id="z0-alruZ7ZSNQ_fgsvlK-15" value="email/password" style="edgeLabel;html=1;align=center;verticalAlign=middle;resizable=0;points=[];" vertex="1" connectable="0" parent="z0-alruZ7ZSNQ_fgsvlK-14">
          <mxGeometry x="-0.4474" y="-1" relative="1" as="geometry">
            <mxPoint x="20" as="offset" />
          </mxGeometry>
        </mxCell>
        <mxCell id="z0-alruZ7ZSNQ_fgsvlK-16" value="" style="endArrow=classic;html=1;rounded=0;entryX=0;entryY=0.25;entryDx=0;entryDy=0;exitX=0.975;exitY=0.325;exitDx=0;exitDy=0;exitPerimeter=0;" edge="1" parent="1" target="z0-alruZ7ZSNQ_fgsvlK-13">
          <mxGeometry width="50" height="50" relative="1" as="geometry">
            <mxPoint x="438" y="147" as="sourcePoint" />
            <mxPoint x="372" y="154" as="targetPoint" />
          </mxGeometry>
        </mxCell>
        <mxCell id="z0-alruZ7ZSNQ_fgsvlK-17" value="authentication" style="edgeLabel;html=1;align=center;verticalAlign=middle;resizable=0;points=[];" vertex="1" connectable="0" parent="z0-alruZ7ZSNQ_fgsvlK-16">
          <mxGeometry x="-0.0495" y="-1" relative="1" as="geometry">
            <mxPoint as="offset" />
          </mxGeometry>
        </mxCell>
        <mxCell id="z0-alruZ7ZSNQ_fgsvlK-18" value="validate" style="endArrow=classic;html=1;rounded=0;entryX=0.95;entryY=0.725;entryDx=0;entryDy=0;entryPerimeter=0;exitX=0;exitY=0.75;exitDx=0;exitDy=0;" edge="1" parent="1" source="z0-alruZ7ZSNQ_fgsvlK-13">
          <mxGeometry width="50" height="50" relative="1" as="geometry">
            <mxPoint x="400" y="381" as="sourcePoint" />
            <mxPoint x="436" y="179" as="targetPoint" />
          </mxGeometry>
        </mxCell>
        <mxCell id="z0-alruZ7ZSNQ_fgsvlK-19" value="Response" style="endArrow=classic;html=1;rounded=0;entryX=1;entryY=0.688;entryDx=0;entryDy=0;entryPerimeter=0;exitX=0.025;exitY=0.688;exitDx=0;exitDy=0;exitPerimeter=0;" edge="1" parent="1">
          <mxGeometry width="50" height="50" relative="1" as="geometry">
            <mxPoint x="362" y="176" as="sourcePoint" />
            <mxPoint x="200" y="176" as="targetPoint" />
          </mxGeometry>
        </mxCell>
        <mxCell id="z0-alruZ7ZSNQ_fgsvlK-20" value="Login" style="ellipse;shape=doubleEllipse;whiteSpace=wrap;html=1;aspect=fixed;" vertex="1" parent="1">
          <mxGeometry x="360" y="121" width="80" height="80" as="geometry" />
        </mxCell>
        <mxCell id="z0-alruZ7ZSNQ_fgsvlK-21" value="User" style="shape=partialRectangle;whiteSpace=wrap;html=1;left=0;right=0;fillColor=none;" vertex="1" parent="1">
          <mxGeometry x="80" y="310" width="120" height="60" as="geometry" />
        </mxCell>
        <mxCell id="z0-alruZ7ZSNQ_fgsvlK-22" value="Items" style="shape=partialRectangle;whiteSpace=wrap;html=1;left=0;right=0;fillColor=none;" vertex="1" parent="1">
          <mxGeometry x="600" y="310" width="120" height="60" as="geometry" />
        </mxCell>
        <mxCell id="z0-alruZ7ZSNQ_fgsvlK-23" value="" style="endArrow=classic;html=1;rounded=0;entryX=0.025;entryY=0.288;entryDx=0;entryDy=0;entryPerimeter=0;" edge="1" parent="1">
          <mxGeometry width="50" height="50" relative="1" as="geometry">
            <mxPoint x="210" y="323" as="sourcePoint" />
            <mxPoint x="362" y="323" as="targetPoint" />
          </mxGeometry>
        </mxCell>
        <mxCell id="z0-alruZ7ZSNQ_fgsvlK-24" value="search item" style="edgeLabel;html=1;align=center;verticalAlign=middle;resizable=0;points=[];" vertex="1" connectable="0" parent="z0-alruZ7ZSNQ_fgsvlK-23">
          <mxGeometry x="-0.4474" y="-1" relative="1" as="geometry">
            <mxPoint x="20" as="offset" />
          </mxGeometry>
        </mxCell>
        <mxCell id="z0-alruZ7ZSNQ_fgsvlK-25" value="" style="endArrow=classic;html=1;rounded=0;entryX=0;entryY=0.25;entryDx=0;entryDy=0;exitX=0.975;exitY=0.325;exitDx=0;exitDy=0;exitPerimeter=0;" edge="1" parent="1" target="z0-alruZ7ZSNQ_fgsvlK-22">
          <mxGeometry width="50" height="50" relative="1" as="geometry">
            <mxPoint x="438" y="326" as="sourcePoint" />
            <mxPoint x="372" y="333" as="targetPoint" />
          </mxGeometry>
        </mxCell>
        <mxCell id="z0-alruZ7ZSNQ_fgsvlK-26" value="Check item" style="edgeLabel;html=1;align=center;verticalAlign=middle;resizable=0;points=[];" vertex="1" connectable="0" parent="z0-alruZ7ZSNQ_fgsvlK-25">
          <mxGeometry x="-0.0495" y="-1" relative="1" as="geometry">
            <mxPoint as="offset" />
          </mxGeometry>
        </mxCell>
        <mxCell id="z0-alruZ7ZSNQ_fgsvlK-27" value="confirm" style="endArrow=classic;html=1;rounded=0;entryX=0.95;entryY=0.725;entryDx=0;entryDy=0;entryPerimeter=0;exitX=0;exitY=0.75;exitDx=0;exitDy=0;" edge="1" parent="1" source="z0-alruZ7ZSNQ_fgsvlK-22">
          <mxGeometry width="50" height="50" relative="1" as="geometry">
            <mxPoint x="400" y="560" as="sourcePoint" />
            <mxPoint x="436" y="358" as="targetPoint" />
          </mxGeometry>
        </mxCell>
        <mxCell id="z0-alruZ7ZSNQ_fgsvlK-28" value="view item" style="endArrow=classic;html=1;rounded=0;entryX=1;entryY=0.688;entryDx=0;entryDy=0;entryPerimeter=0;exitX=0.025;exitY=0.688;exitDx=0;exitDy=0;exitPerimeter=0;" edge="1" parent="1">
          <mxGeometry width="50" height="50" relative="1" as="geometry">
            <mxPoint x="362" y="355" as="sourcePoint" />
            <mxPoint x="200" y="355" as="targetPoint" />
          </mxGeometry>
        </mxCell>
        <mxCell id="z0-alruZ7ZSNQ_fgsvlK-29" value="Search Item" style="ellipse;shape=doubleEllipse;whiteSpace=wrap;html=1;aspect=fixed;" vertex="1" parent="1">
          <mxGeometry x="360" y="300" width="80" height="80" as="geometry" />
        </mxCell>
        <mxCell id="E0Kt9-H0mQ-xbiAunjez-2" value="User" style="shape=partialRectangle;whiteSpace=wrap;html=1;left=0;right=0;fillColor=none;" vertex="1" parent="1">
          <mxGeometry x="80" y="400" width="120" height="60" as="geometry" />
        </mxCell>
        <mxCell id="E0Kt9-H0mQ-xbiAunjez-3" value="carts" style="shape=partialRectangle;whiteSpace=wrap;html=1;left=0;right=0;fillColor=none;" vertex="1" parent="1">
          <mxGeometry x="600" y="400" width="120" height="60" as="geometry" />
        </mxCell>
        <mxCell id="E0Kt9-H0mQ-xbiAunjez-4" value="" style="endArrow=classic;html=1;rounded=0;entryX=0.025;entryY=0.288;entryDx=0;entryDy=0;entryPerimeter=0;" edge="1" parent="1">
          <mxGeometry width="50" height="50" relative="1" as="geometry">
            <mxPoint x="210" y="413" as="sourcePoint" />
            <mxPoint x="362" y="413" as="targetPoint" />
          </mxGeometry>
        </mxCell>
        <mxCell id="E0Kt9-H0mQ-xbiAunjez-5" value="add item" style="edgeLabel;html=1;align=center;verticalAlign=middle;resizable=0;points=[];" vertex="1" connectable="0" parent="E0Kt9-H0mQ-xbiAunjez-4">
          <mxGeometry x="-0.4474" y="-1" relative="1" as="geometry">
            <mxPoint x="20" as="offset" />
          </mxGeometry>
        </mxCell>
        <mxCell id="E0Kt9-H0mQ-xbiAunjez-6" value="" style="endArrow=classic;html=1;rounded=0;entryX=0;entryY=0.25;entryDx=0;entryDy=0;exitX=0.975;exitY=0.325;exitDx=0;exitDy=0;exitPerimeter=0;" edge="1" parent="1" target="E0Kt9-H0mQ-xbiAunjez-3">
          <mxGeometry width="50" height="50" relative="1" as="geometry">
            <mxPoint x="438" y="416" as="sourcePoint" />
            <mxPoint x="372" y="423" as="targetPoint" />
          </mxGeometry>
        </mxCell>
        <mxCell id="E0Kt9-H0mQ-xbiAunjez-7" value="in cart" style="edgeLabel;html=1;align=center;verticalAlign=middle;resizable=0;points=[];" vertex="1" connectable="0" parent="E0Kt9-H0mQ-xbiAunjez-6">
          <mxGeometry x="-0.0495" y="-1" relative="1" as="geometry">
            <mxPoint as="offset" />
          </mxGeometry>
        </mxCell>
        <mxCell id="E0Kt9-H0mQ-xbiAunjez-8" value="update" style="endArrow=classic;html=1;rounded=0;entryX=0.95;entryY=0.725;entryDx=0;entryDy=0;entryPerimeter=0;exitX=0;exitY=0.75;exitDx=0;exitDy=0;" edge="1" parent="1" source="E0Kt9-H0mQ-xbiAunjez-3">
          <mxGeometry width="50" height="50" relative="1" as="geometry">
            <mxPoint x="400" y="650" as="sourcePoint" />
            <mxPoint x="436" y="448" as="targetPoint" />
          </mxGeometry>
        </mxCell>
        <mxCell id="E0Kt9-H0mQ-xbiAunjez-9" value="view cart" style="endArrow=classic;html=1;rounded=0;entryX=1;entryY=0.688;entryDx=0;entryDy=0;entryPerimeter=0;exitX=0.025;exitY=0.688;exitDx=0;exitDy=0;exitPerimeter=0;" edge="1" parent="1">
          <mxGeometry width="50" height="50" relative="1" as="geometry">
            <mxPoint x="362" y="445" as="sourcePoint" />
            <mxPoint x="200" y="445" as="targetPoint" />
          </mxGeometry>
        </mxCell>
        <mxCell id="E0Kt9-H0mQ-xbiAunjez-10" value="Add to Cart" style="ellipse;shape=doubleEllipse;whiteSpace=wrap;html=1;aspect=fixed;" vertex="1" parent="1">
          <mxGeometry x="360" y="388" width="80" height="80" as="geometry" />
        </mxCell>
        <mxCell id="E0Kt9-H0mQ-xbiAunjez-29" value="User" style="shape=partialRectangle;whiteSpace=wrap;html=1;left=0;right=0;fillColor=none;" vertex="1" parent="1">
          <mxGeometry x="80" y="490" width="120" height="60" as="geometry" />
        </mxCell>
        <mxCell id="E0Kt9-H0mQ-xbiAunjez-30" value="Items" style="shape=partialRectangle;whiteSpace=wrap;html=1;left=0;right=0;fillColor=none;" vertex="1" parent="1">
          <mxGeometry x="600" y="490" width="120" height="60" as="geometry" />
        </mxCell>
        <mxCell id="E0Kt9-H0mQ-xbiAunjez-31" value="" style="endArrow=classic;html=1;rounded=0;entryX=0.025;entryY=0.288;entryDx=0;entryDy=0;entryPerimeter=0;" edge="1" parent="1">
          <mxGeometry width="50" height="50" relative="1" as="geometry">
            <mxPoint x="210" y="503" as="sourcePoint" />
            <mxPoint x="362" y="503" as="targetPoint" />
          </mxGeometry>
        </mxCell>
        <mxCell id="E0Kt9-H0mQ-xbiAunjez-32" value="search item" style="edgeLabel;html=1;align=center;verticalAlign=middle;resizable=0;points=[];" vertex="1" connectable="0" parent="E0Kt9-H0mQ-xbiAunjez-31">
          <mxGeometry x="-0.4474" y="-1" relative="1" as="geometry">
            <mxPoint x="20" as="offset" />
          </mxGeometry>
        </mxCell>
        <mxCell id="E0Kt9-H0mQ-xbiAunjez-33" value="" style="endArrow=classic;html=1;rounded=0;entryX=0;entryY=0.25;entryDx=0;entryDy=0;exitX=0.975;exitY=0.325;exitDx=0;exitDy=0;exitPerimeter=0;" edge="1" parent="1" target="E0Kt9-H0mQ-xbiAunjez-30">
          <mxGeometry width="50" height="50" relative="1" as="geometry">
            <mxPoint x="438" y="506" as="sourcePoint" />
            <mxPoint x="372" y="513" as="targetPoint" />
          </mxGeometry>
        </mxCell>
        <mxCell id="E0Kt9-H0mQ-xbiAunjez-34" value="buy item" style="edgeLabel;html=1;align=center;verticalAlign=middle;resizable=0;points=[];" vertex="1" connectable="0" parent="E0Kt9-H0mQ-xbiAunjez-33">
          <mxGeometry x="-0.0495" y="-1" relative="1" as="geometry">
            <mxPoint as="offset" />
          </mxGeometry>
        </mxCell>
        <mxCell id="E0Kt9-H0mQ-xbiAunjez-35" value="confirm" style="endArrow=classic;html=1;rounded=0;entryX=0.95;entryY=0.725;entryDx=0;entryDy=0;entryPerimeter=0;exitX=0;exitY=0.75;exitDx=0;exitDy=0;" edge="1" parent="1" source="E0Kt9-H0mQ-xbiAunjez-30">
          <mxGeometry width="50" height="50" relative="1" as="geometry">
            <mxPoint x="400" y="740" as="sourcePoint" />
            <mxPoint x="436" y="538" as="targetPoint" />
          </mxGeometry>
        </mxCell>
        <mxCell id="E0Kt9-H0mQ-xbiAunjez-36" value="view item" style="endArrow=classic;html=1;rounded=0;entryX=1;entryY=0.688;entryDx=0;entryDy=0;entryPerimeter=0;exitX=0.025;exitY=0.688;exitDx=0;exitDy=0;exitPerimeter=0;" edge="1" parent="1">
          <mxGeometry width="50" height="50" relative="1" as="geometry">
            <mxPoint x="362" y="535" as="sourcePoint" />
            <mxPoint x="200" y="535" as="targetPoint" />
          </mxGeometry>
        </mxCell>
        <mxCell id="E0Kt9-H0mQ-xbiAunjez-37" value="Buy Item" style="ellipse;shape=doubleEllipse;whiteSpace=wrap;html=1;aspect=fixed;" vertex="1" parent="1">
          <mxGeometry x="360" y="479" width="80" height="80" as="geometry" />
        </mxCell>
        <mxCell id="E0Kt9-H0mQ-xbiAunjez-38" value="User" style="shape=partialRectangle;whiteSpace=wrap;html=1;left=0;right=0;fillColor=none;" vertex="1" parent="1">
          <mxGeometry x="80" y="580" width="120" height="60" as="geometry" />
        </mxCell>
        <mxCell id="E0Kt9-H0mQ-xbiAunjez-39" value="orders" style="shape=partialRectangle;whiteSpace=wrap;html=1;left=0;right=0;fillColor=none;" vertex="1" parent="1">
          <mxGeometry x="600" y="580" width="120" height="60" as="geometry" />
        </mxCell>
        <mxCell id="E0Kt9-H0mQ-xbiAunjez-40" value="" style="endArrow=classic;html=1;rounded=0;entryX=0.025;entryY=0.288;entryDx=0;entryDy=0;entryPerimeter=0;" edge="1" parent="1">
          <mxGeometry width="50" height="50" relative="1" as="geometry">
            <mxPoint x="210" y="593" as="sourcePoint" />
            <mxPoint x="362" y="593" as="targetPoint" />
          </mxGeometry>
        </mxCell>
        <mxCell id="E0Kt9-H0mQ-xbiAunjez-41" value="palce order" style="edgeLabel;html=1;align=center;verticalAlign=middle;resizable=0;points=[];" vertex="1" connectable="0" parent="E0Kt9-H0mQ-xbiAunjez-40">
          <mxGeometry x="-0.4474" y="-1" relative="1" as="geometry">
            <mxPoint x="20" as="offset" />
          </mxGeometry>
        </mxCell>
        <mxCell id="E0Kt9-H0mQ-xbiAunjez-42" value="" style="endArrow=classic;html=1;rounded=0;entryX=0;entryY=0.25;entryDx=0;entryDy=0;exitX=0.975;exitY=0.325;exitDx=0;exitDy=0;exitPerimeter=0;" edge="1" parent="1" target="E0Kt9-H0mQ-xbiAunjez-39">
          <mxGeometry width="50" height="50" relative="1" as="geometry">
            <mxPoint x="438" y="596" as="sourcePoint" />
            <mxPoint x="372" y="603" as="targetPoint" />
          </mxGeometry>
        </mxCell>
        <mxCell id="E0Kt9-H0mQ-xbiAunjez-43" value="add order" style="edgeLabel;html=1;align=center;verticalAlign=middle;resizable=0;points=[];" vertex="1" connectable="0" parent="E0Kt9-H0mQ-xbiAunjez-42">
          <mxGeometry x="-0.0495" y="-1" relative="1" as="geometry">
            <mxPoint as="offset" />
          </mxGeometry>
        </mxCell>
        <mxCell id="E0Kt9-H0mQ-xbiAunjez-44" value="confirm" style="endArrow=classic;html=1;rounded=0;entryX=0.95;entryY=0.725;entryDx=0;entryDy=0;entryPerimeter=0;exitX=0;exitY=0.75;exitDx=0;exitDy=0;" edge="1" parent="1" source="E0Kt9-H0mQ-xbiAunjez-39">
          <mxGeometry width="50" height="50" relative="1" as="geometry">
            <mxPoint x="400" y="830" as="sourcePoint" />
            <mxPoint x="436" y="628" as="targetPoint" />
          </mxGeometry>
        </mxCell>
        <mxCell id="E0Kt9-H0mQ-xbiAunjez-45" value="view order" style="endArrow=classic;html=1;rounded=0;entryX=1;entryY=0.688;entryDx=0;entryDy=0;entryPerimeter=0;exitX=0.025;exitY=0.688;exitDx=0;exitDy=0;exitPerimeter=0;" edge="1" parent="1">
          <mxGeometry width="50" height="50" relative="1" as="geometry">
            <mxPoint x="362" y="625" as="sourcePoint" />
            <mxPoint x="200" y="625" as="targetPoint" />
          </mxGeometry>
        </mxCell>
        <mxCell id="E0Kt9-H0mQ-xbiAunjez-46" value="Place Order" style="ellipse;shape=doubleEllipse;whiteSpace=wrap;html=1;aspect=fixed;" vertex="1" parent="1">
          <mxGeometry x="360" y="570" width="80" height="80" as="geometry" />
        </mxCell>
        <mxCell id="Mipw6xH5_vidbDZSYO70-1" value="User" style="shape=partialRectangle;whiteSpace=wrap;html=1;left=0;right=0;fillColor=none;" vertex="1" parent="1">
          <mxGeometry x="80" y="680" width="120" height="60" as="geometry" />
        </mxCell>
        <mxCell id="Mipw6xH5_vidbDZSYO70-2" value="payment" style="shape=partialRectangle;whiteSpace=wrap;html=1;left=0;right=0;fillColor=none;" vertex="1" parent="1">
          <mxGeometry x="600" y="680" width="120" height="60" as="geometry" />
        </mxCell>
        <mxCell id="Mipw6xH5_vidbDZSYO70-3" value="" style="endArrow=classic;html=1;rounded=0;entryX=0.025;entryY=0.288;entryDx=0;entryDy=0;entryPerimeter=0;" edge="1" parent="1">
          <mxGeometry width="50" height="50" relative="1" as="geometry">
            <mxPoint x="210" y="693" as="sourcePoint" />
            <mxPoint x="362" y="693" as="targetPoint" />
          </mxGeometry>
        </mxCell>
        <mxCell id="Mipw6xH5_vidbDZSYO70-4" value="payment detail" style="edgeLabel;html=1;align=center;verticalAlign=middle;resizable=0;points=[];" vertex="1" connectable="0" parent="Mipw6xH5_vidbDZSYO70-3">
          <mxGeometry x="-0.4474" y="-1" relative="1" as="geometry">
            <mxPoint x="20" as="offset" />
          </mxGeometry>
        </mxCell>
        <mxCell id="Mipw6xH5_vidbDZSYO70-5" value="" style="endArrow=classic;html=1;rounded=0;entryX=0;entryY=0.25;entryDx=0;entryDy=0;exitX=0.975;exitY=0.325;exitDx=0;exitDy=0;exitPerimeter=0;" edge="1" parent="1" target="Mipw6xH5_vidbDZSYO70-2">
          <mxGeometry width="50" height="50" relative="1" as="geometry">
            <mxPoint x="438" y="696" as="sourcePoint" />
            <mxPoint x="372" y="703" as="targetPoint" />
          </mxGeometry>
        </mxCell>
        <mxCell id="Mipw6xH5_vidbDZSYO70-6" value="add detail" style="edgeLabel;html=1;align=center;verticalAlign=middle;resizable=0;points=[];" vertex="1" connectable="0" parent="Mipw6xH5_vidbDZSYO70-5">
          <mxGeometry x="-0.0495" y="-1" relative="1" as="geometry">
            <mxPoint as="offset" />
          </mxGeometry>
        </mxCell>
        <mxCell id="Mipw6xH5_vidbDZSYO70-7" value="confirm" style="endArrow=classic;html=1;rounded=0;entryX=0.95;entryY=0.725;entryDx=0;entryDy=0;entryPerimeter=0;exitX=0;exitY=0.75;exitDx=0;exitDy=0;" edge="1" parent="1" source="Mipw6xH5_vidbDZSYO70-2">
          <mxGeometry width="50" height="50" relative="1" as="geometry">
            <mxPoint x="400" y="930" as="sourcePoint" />
            <mxPoint x="436" y="728" as="targetPoint" />
          </mxGeometry>
        </mxCell>
        <mxCell id="Mipw6xH5_vidbDZSYO70-8" value="payment reciept" style="endArrow=classic;html=1;rounded=0;entryX=1;entryY=0.688;entryDx=0;entryDy=0;entryPerimeter=0;exitX=0.025;exitY=0.688;exitDx=0;exitDy=0;exitPerimeter=0;" edge="1" parent="1">
          <mxGeometry width="50" height="50" relative="1" as="geometry">
            <mxPoint x="362" y="725" as="sourcePoint" />
            <mxPoint x="200" y="725" as="targetPoint" />
          </mxGeometry>
        </mxCell>
        <mxCell id="Mipw6xH5_vidbDZSYO70-9" value="Payment" style="ellipse;shape=doubleEllipse;whiteSpace=wrap;html=1;aspect=fixed;" vertex="1" parent="1">
          <mxGeometry x="360" y="666" width="80" height="80" as="geometry" />
        </mxCell>
        <mxCell id="JE4DxtjbRPccf0ltayJu-1" value="User" style="shape=partialRectangle;whiteSpace=wrap;html=1;left=0;right=0;fillColor=none;" vertex="1" parent="1">
          <mxGeometry x="80" y="220" width="120" height="60" as="geometry" />
        </mxCell>
        <mxCell id="JE4DxtjbRPccf0ltayJu-2" value="accounts" style="shape=partialRectangle;whiteSpace=wrap;html=1;left=0;right=0;fillColor=none;" vertex="1" parent="1">
          <mxGeometry x="600" y="220" width="120" height="60" as="geometry" />
        </mxCell>
        <mxCell id="JE4DxtjbRPccf0ltayJu-3" value="" style="endArrow=classic;html=1;rounded=0;entryX=0.025;entryY=0.288;entryDx=0;entryDy=0;entryPerimeter=0;" edge="1" parent="1">
          <mxGeometry width="50" height="50" relative="1" as="geometry">
            <mxPoint x="210" y="233" as="sourcePoint" />
            <mxPoint x="362" y="233" as="targetPoint" />
          </mxGeometry>
        </mxCell>
        <mxCell id="JE4DxtjbRPccf0ltayJu-4" value="account name" style="edgeLabel;html=1;align=center;verticalAlign=middle;resizable=0;points=[];" vertex="1" connectable="0" parent="JE4DxtjbRPccf0ltayJu-3">
          <mxGeometry x="-0.4474" y="-1" relative="1" as="geometry">
            <mxPoint x="20" as="offset" />
          </mxGeometry>
        </mxCell>
        <mxCell id="JE4DxtjbRPccf0ltayJu-5" value="" style="endArrow=classic;html=1;rounded=0;entryX=0;entryY=0.25;entryDx=0;entryDy=0;exitX=0.975;exitY=0.325;exitDx=0;exitDy=0;exitPerimeter=0;" edge="1" parent="1" target="JE4DxtjbRPccf0ltayJu-2">
          <mxGeometry width="50" height="50" relative="1" as="geometry">
            <mxPoint x="438" y="236" as="sourcePoint" />
            <mxPoint x="372" y="243" as="targetPoint" />
          </mxGeometry>
        </mxCell>
        <mxCell id="JE4DxtjbRPccf0ltayJu-6" value="add detail" style="edgeLabel;html=1;align=center;verticalAlign=middle;resizable=0;points=[];" vertex="1" connectable="0" parent="JE4DxtjbRPccf0ltayJu-5">
          <mxGeometry x="-0.0495" y="-1" relative="1" as="geometry">
            <mxPoint as="offset" />
          </mxGeometry>
        </mxCell>
        <mxCell id="JE4DxtjbRPccf0ltayJu-7" value="update" style="endArrow=classic;html=1;rounded=0;entryX=0.95;entryY=0.725;entryDx=0;entryDy=0;entryPerimeter=0;exitX=0;exitY=0.75;exitDx=0;exitDy=0;" edge="1" parent="1" source="JE4DxtjbRPccf0ltayJu-2">
          <mxGeometry width="50" height="50" relative="1" as="geometry">
            <mxPoint x="400" y="470" as="sourcePoint" />
            <mxPoint x="436" y="268" as="targetPoint" />
          </mxGeometry>
        </mxCell>
        <mxCell id="JE4DxtjbRPccf0ltayJu-8" value="view detail" style="endArrow=classic;html=1;rounded=0;entryX=1;entryY=0.688;entryDx=0;entryDy=0;entryPerimeter=0;exitX=0.025;exitY=0.688;exitDx=0;exitDy=0;exitPerimeter=0;" edge="1" parent="1">
          <mxGeometry width="50" height="50" relative="1" as="geometry">
            <mxPoint x="362" y="265" as="sourcePoint" />
            <mxPoint x="200" y="265" as="targetPoint" />
          </mxGeometry>
        </mxCell>
        <mxCell id="JE4DxtjbRPccf0ltayJu-9" value="Account" style="ellipse;shape=doubleEllipse;whiteSpace=wrap;html=1;aspect=fixed;" vertex="1" parent="1">
          <mxGeometry x="360" y="210" width="80" height="80" as="geometry" />
        </mxCell>
      </root>
    </mxGraphModel>
  </diagram>
  <diagram name="1 Level Admin" id="Rfv0vmrR39SJAgWiyOnl">
    <mxGraphModel dx="864" dy="516" grid="1" gridSize="10" guides="1" tooltips="1" connect="1" arrows="1" fold="1" page="1" pageScale="1" pageWidth="850" pageHeight="1100" math="0" shadow="0">
      <root>
        <mxCell id="wo1vXCDjuEzKBGnD0IXy-0" />
        <mxCell id="wo1vXCDjuEzKBGnD0IXy-1" parent="wo1vXCDjuEzKBGnD0IXy-0" />
        <mxCell id="wo1vXCDjuEzKBGnD0IXy-11" value="Admin" style="shape=partialRectangle;whiteSpace=wrap;html=1;left=0;right=0;fillColor=none;" vertex="1" parent="wo1vXCDjuEzKBGnD0IXy-1">
          <mxGeometry x="80" y="130" width="120" height="60" as="geometry" />
        </mxCell>
        <mxCell id="wo1vXCDjuEzKBGnD0IXy-12" value="users" style="shape=partialRectangle;whiteSpace=wrap;html=1;left=0;right=0;fillColor=none;" vertex="1" parent="wo1vXCDjuEzKBGnD0IXy-1">
          <mxGeometry x="600" y="130" width="120" height="60" as="geometry" />
        </mxCell>
        <mxCell id="wo1vXCDjuEzKBGnD0IXy-13" value="" style="endArrow=classic;html=1;rounded=0;entryX=0.025;entryY=0.288;entryDx=0;entryDy=0;entryPerimeter=0;" edge="1" parent="wo1vXCDjuEzKBGnD0IXy-1">
          <mxGeometry width="50" height="50" relative="1" as="geometry">
            <mxPoint x="210" y="143" as="sourcePoint" />
            <mxPoint x="362" y="143" as="targetPoint" />
          </mxGeometry>
        </mxCell>
        <mxCell id="wo1vXCDjuEzKBGnD0IXy-14" value="email/password" style="edgeLabel;html=1;align=center;verticalAlign=middle;resizable=0;points=[];" vertex="1" connectable="0" parent="wo1vXCDjuEzKBGnD0IXy-13">
          <mxGeometry x="-0.4474" y="-1" relative="1" as="geometry">
            <mxPoint x="20" as="offset" />
          </mxGeometry>
        </mxCell>
        <mxCell id="wo1vXCDjuEzKBGnD0IXy-15" value="" style="endArrow=classic;html=1;rounded=0;entryX=0;entryY=0.25;entryDx=0;entryDy=0;exitX=0.975;exitY=0.325;exitDx=0;exitDy=0;exitPerimeter=0;" edge="1" parent="wo1vXCDjuEzKBGnD0IXy-1" target="wo1vXCDjuEzKBGnD0IXy-12">
          <mxGeometry width="50" height="50" relative="1" as="geometry">
            <mxPoint x="438" y="146" as="sourcePoint" />
            <mxPoint x="372" y="153" as="targetPoint" />
          </mxGeometry>
        </mxCell>
        <mxCell id="wo1vXCDjuEzKBGnD0IXy-16" value="authentication" style="edgeLabel;html=1;align=center;verticalAlign=middle;resizable=0;points=[];" vertex="1" connectable="0" parent="wo1vXCDjuEzKBGnD0IXy-15">
          <mxGeometry x="-0.0495" y="-1" relative="1" as="geometry">
            <mxPoint as="offset" />
          </mxGeometry>
        </mxCell>
        <mxCell id="wo1vXCDjuEzKBGnD0IXy-17" value="validate" style="endArrow=classic;html=1;rounded=0;entryX=0.95;entryY=0.725;entryDx=0;entryDy=0;entryPerimeter=0;exitX=0;exitY=0.75;exitDx=0;exitDy=0;" edge="1" parent="wo1vXCDjuEzKBGnD0IXy-1" source="wo1vXCDjuEzKBGnD0IXy-12">
          <mxGeometry width="50" height="50" relative="1" as="geometry">
            <mxPoint x="400" y="380" as="sourcePoint" />
            <mxPoint x="436" y="178" as="targetPoint" />
          </mxGeometry>
        </mxCell>
        <mxCell id="wo1vXCDjuEzKBGnD0IXy-18" value="Response" style="endArrow=classic;html=1;rounded=0;entryX=1;entryY=0.688;entryDx=0;entryDy=0;entryPerimeter=0;exitX=0.025;exitY=0.688;exitDx=0;exitDy=0;exitPerimeter=0;" edge="1" parent="wo1vXCDjuEzKBGnD0IXy-1">
          <mxGeometry width="50" height="50" relative="1" as="geometry">
            <mxPoint x="362" y="175" as="sourcePoint" />
            <mxPoint x="200" y="175" as="targetPoint" />
          </mxGeometry>
        </mxCell>
        <mxCell id="wo1vXCDjuEzKBGnD0IXy-19" value="Login" style="ellipse;shape=doubleEllipse;whiteSpace=wrap;html=1;aspect=fixed;" vertex="1" parent="wo1vXCDjuEzKBGnD0IXy-1">
          <mxGeometry x="360" y="120" width="80" height="80" as="geometry" />
        </mxCell>
        <mxCell id="wo1vXCDjuEzKBGnD0IXy-20" value="Admin" style="shape=partialRectangle;whiteSpace=wrap;html=1;left=0;right=0;fillColor=none;" vertex="1" parent="wo1vXCDjuEzKBGnD0IXy-1">
          <mxGeometry x="80" y="220" width="120" height="60" as="geometry" />
        </mxCell>
        <mxCell id="wo1vXCDjuEzKBGnD0IXy-21" value="catagories" style="shape=partialRectangle;whiteSpace=wrap;html=1;left=0;right=0;fillColor=none;" vertex="1" parent="wo1vXCDjuEzKBGnD0IXy-1">
          <mxGeometry x="600" y="220" width="120" height="60" as="geometry" />
        </mxCell>
        <mxCell id="wo1vXCDjuEzKBGnD0IXy-22" value="" style="endArrow=classic;html=1;rounded=0;entryX=0.025;entryY=0.288;entryDx=0;entryDy=0;entryPerimeter=0;" edge="1" parent="wo1vXCDjuEzKBGnD0IXy-1">
          <mxGeometry width="50" height="50" relative="1" as="geometry">
            <mxPoint x="210" y="233" as="sourcePoint" />
            <mxPoint x="362" y="233" as="targetPoint" />
          </mxGeometry>
        </mxCell>
        <mxCell id="wo1vXCDjuEzKBGnD0IXy-23" value="search item" style="edgeLabel;html=1;align=center;verticalAlign=middle;resizable=0;points=[];" vertex="1" connectable="0" parent="wo1vXCDjuEzKBGnD0IXy-22">
          <mxGeometry x="-0.4474" y="-1" relative="1" as="geometry">
            <mxPoint x="20" as="offset" />
          </mxGeometry>
        </mxCell>
        <mxCell id="wo1vXCDjuEzKBGnD0IXy-24" value="" style="endArrow=classic;html=1;rounded=0;entryX=0;entryY=0.25;entryDx=0;entryDy=0;exitX=0.975;exitY=0.325;exitDx=0;exitDy=0;exitPerimeter=0;" edge="1" parent="wo1vXCDjuEzKBGnD0IXy-1" target="wo1vXCDjuEzKBGnD0IXy-21">
          <mxGeometry width="50" height="50" relative="1" as="geometry">
            <mxPoint x="438" y="236" as="sourcePoint" />
            <mxPoint x="372" y="243" as="targetPoint" />
          </mxGeometry>
        </mxCell>
        <mxCell id="wo1vXCDjuEzKBGnD0IXy-25" value="Check item" style="edgeLabel;html=1;align=center;verticalAlign=middle;resizable=0;points=[];" vertex="1" connectable="0" parent="wo1vXCDjuEzKBGnD0IXy-24">
          <mxGeometry x="-0.0495" y="-1" relative="1" as="geometry">
            <mxPoint as="offset" />
          </mxGeometry>
        </mxCell>
        <mxCell id="wo1vXCDjuEzKBGnD0IXy-26" value="confirm" style="endArrow=classic;html=1;rounded=0;entryX=0.95;entryY=0.725;entryDx=0;entryDy=0;entryPerimeter=0;exitX=0;exitY=0.75;exitDx=0;exitDy=0;" edge="1" parent="wo1vXCDjuEzKBGnD0IXy-1" source="wo1vXCDjuEzKBGnD0IXy-21">
          <mxGeometry width="50" height="50" relative="1" as="geometry">
            <mxPoint x="400" y="470" as="sourcePoint" />
            <mxPoint x="436" y="268" as="targetPoint" />
          </mxGeometry>
        </mxCell>
        <mxCell id="wo1vXCDjuEzKBGnD0IXy-27" value="view item" style="endArrow=classic;html=1;rounded=0;entryX=1;entryY=0.688;entryDx=0;entryDy=0;entryPerimeter=0;exitX=0.025;exitY=0.688;exitDx=0;exitDy=0;exitPerimeter=0;" edge="1" parent="wo1vXCDjuEzKBGnD0IXy-1">
          <mxGeometry width="50" height="50" relative="1" as="geometry">
            <mxPoint x="362" y="265" as="sourcePoint" />
            <mxPoint x="200" y="265" as="targetPoint" />
          </mxGeometry>
        </mxCell>
        <mxCell id="wo1vXCDjuEzKBGnD0IXy-28" value="Manage Catagory" style="ellipse;shape=doubleEllipse;whiteSpace=wrap;html=1;aspect=fixed;" vertex="1" parent="wo1vXCDjuEzKBGnD0IXy-1">
          <mxGeometry x="360" y="210" width="80" height="80" as="geometry" />
        </mxCell>
        <mxCell id="wo1vXCDjuEzKBGnD0IXy-29" value="Admin" style="shape=partialRectangle;whiteSpace=wrap;html=1;left=0;right=0;fillColor=none;" vertex="1" parent="wo1vXCDjuEzKBGnD0IXy-1">
          <mxGeometry x="80" y="310" width="120" height="60" as="geometry" />
        </mxCell>
        <mxCell id="wo1vXCDjuEzKBGnD0IXy-30" value="items" style="shape=partialRectangle;whiteSpace=wrap;html=1;left=0;right=0;fillColor=none;" vertex="1" parent="wo1vXCDjuEzKBGnD0IXy-1">
          <mxGeometry x="600" y="310" width="120" height="60" as="geometry" />
        </mxCell>
        <mxCell id="wo1vXCDjuEzKBGnD0IXy-31" value="" style="endArrow=classic;html=1;rounded=0;entryX=0.025;entryY=0.288;entryDx=0;entryDy=0;entryPerimeter=0;" edge="1" parent="wo1vXCDjuEzKBGnD0IXy-1">
          <mxGeometry width="50" height="50" relative="1" as="geometry">
            <mxPoint x="210" y="323" as="sourcePoint" />
            <mxPoint x="362" y="323" as="targetPoint" />
          </mxGeometry>
        </mxCell>
        <mxCell id="wo1vXCDjuEzKBGnD0IXy-32" value="add item" style="edgeLabel;html=1;align=center;verticalAlign=middle;resizable=0;points=[];" vertex="1" connectable="0" parent="wo1vXCDjuEzKBGnD0IXy-31">
          <mxGeometry x="-0.4474" y="-1" relative="1" as="geometry">
            <mxPoint x="20" as="offset" />
          </mxGeometry>
        </mxCell>
        <mxCell id="wo1vXCDjuEzKBGnD0IXy-33" value="" style="endArrow=classic;html=1;rounded=0;entryX=0;entryY=0.25;entryDx=0;entryDy=0;exitX=0.975;exitY=0.325;exitDx=0;exitDy=0;exitPerimeter=0;" edge="1" parent="wo1vXCDjuEzKBGnD0IXy-1" target="wo1vXCDjuEzKBGnD0IXy-30">
          <mxGeometry width="50" height="50" relative="1" as="geometry">
            <mxPoint x="438" y="326" as="sourcePoint" />
            <mxPoint x="372" y="333" as="targetPoint" />
          </mxGeometry>
        </mxCell>
        <mxCell id="wo1vXCDjuEzKBGnD0IXy-34" value="in cart" style="edgeLabel;html=1;align=center;verticalAlign=middle;resizable=0;points=[];" vertex="1" connectable="0" parent="wo1vXCDjuEzKBGnD0IXy-33">
          <mxGeometry x="-0.0495" y="-1" relative="1" as="geometry">
            <mxPoint as="offset" />
          </mxGeometry>
        </mxCell>
        <mxCell id="wo1vXCDjuEzKBGnD0IXy-35" value="update" style="endArrow=classic;html=1;rounded=0;entryX=0.95;entryY=0.725;entryDx=0;entryDy=0;entryPerimeter=0;exitX=0;exitY=0.75;exitDx=0;exitDy=0;" edge="1" parent="wo1vXCDjuEzKBGnD0IXy-1" source="wo1vXCDjuEzKBGnD0IXy-30">
          <mxGeometry width="50" height="50" relative="1" as="geometry">
            <mxPoint x="400" y="560" as="sourcePoint" />
            <mxPoint x="436" y="358" as="targetPoint" />
          </mxGeometry>
        </mxCell>
        <mxCell id="wo1vXCDjuEzKBGnD0IXy-36" value="view cart" style="endArrow=classic;html=1;rounded=0;entryX=1;entryY=0.688;entryDx=0;entryDy=0;entryPerimeter=0;exitX=0.025;exitY=0.688;exitDx=0;exitDy=0;exitPerimeter=0;" edge="1" parent="wo1vXCDjuEzKBGnD0IXy-1">
          <mxGeometry width="50" height="50" relative="1" as="geometry">
            <mxPoint x="362" y="355" as="sourcePoint" />
            <mxPoint x="200" y="355" as="targetPoint" />
          </mxGeometry>
        </mxCell>
        <mxCell id="wo1vXCDjuEzKBGnD0IXy-37" value="Manage Item" style="ellipse;shape=doubleEllipse;whiteSpace=wrap;html=1;aspect=fixed;" vertex="1" parent="wo1vXCDjuEzKBGnD0IXy-1">
          <mxGeometry x="360" y="298" width="80" height="80" as="geometry" />
        </mxCell>
        <mxCell id="wo1vXCDjuEzKBGnD0IXy-38" value="Admin" style="shape=partialRectangle;whiteSpace=wrap;html=1;left=0;right=0;fillColor=none;" vertex="1" parent="wo1vXCDjuEzKBGnD0IXy-1">
          <mxGeometry x="80" y="400" width="120" height="60" as="geometry" />
        </mxCell>
        <mxCell id="wo1vXCDjuEzKBGnD0IXy-39" value="orders" style="shape=partialRectangle;whiteSpace=wrap;html=1;left=0;right=0;fillColor=none;" vertex="1" parent="wo1vXCDjuEzKBGnD0IXy-1">
          <mxGeometry x="600" y="400" width="120" height="60" as="geometry" />
        </mxCell>
        <mxCell id="wo1vXCDjuEzKBGnD0IXy-40" value="" style="endArrow=classic;html=1;rounded=0;entryX=0.025;entryY=0.288;entryDx=0;entryDy=0;entryPerimeter=0;" edge="1" parent="wo1vXCDjuEzKBGnD0IXy-1">
          <mxGeometry width="50" height="50" relative="1" as="geometry">
            <mxPoint x="210" y="413" as="sourcePoint" />
            <mxPoint x="362" y="413" as="targetPoint" />
          </mxGeometry>
        </mxCell>
        <mxCell id="wo1vXCDjuEzKBGnD0IXy-41" value="search item" style="edgeLabel;html=1;align=center;verticalAlign=middle;resizable=0;points=[];" vertex="1" connectable="0" parent="wo1vXCDjuEzKBGnD0IXy-40">
          <mxGeometry x="-0.4474" y="-1" relative="1" as="geometry">
            <mxPoint x="20" as="offset" />
          </mxGeometry>
        </mxCell>
        <mxCell id="wo1vXCDjuEzKBGnD0IXy-42" value="" style="endArrow=classic;html=1;rounded=0;entryX=0;entryY=0.25;entryDx=0;entryDy=0;exitX=0.975;exitY=0.325;exitDx=0;exitDy=0;exitPerimeter=0;" edge="1" parent="wo1vXCDjuEzKBGnD0IXy-1" target="wo1vXCDjuEzKBGnD0IXy-39">
          <mxGeometry width="50" height="50" relative="1" as="geometry">
            <mxPoint x="438" y="416" as="sourcePoint" />
            <mxPoint x="372" y="423" as="targetPoint" />
          </mxGeometry>
        </mxCell>
        <mxCell id="wo1vXCDjuEzKBGnD0IXy-43" value="buy item" style="edgeLabel;html=1;align=center;verticalAlign=middle;resizable=0;points=[];" vertex="1" connectable="0" parent="wo1vXCDjuEzKBGnD0IXy-42">
          <mxGeometry x="-0.0495" y="-1" relative="1" as="geometry">
            <mxPoint as="offset" />
          </mxGeometry>
        </mxCell>
        <mxCell id="wo1vXCDjuEzKBGnD0IXy-44" value="confirm" style="endArrow=classic;html=1;rounded=0;entryX=0.95;entryY=0.725;entryDx=0;entryDy=0;entryPerimeter=0;exitX=0;exitY=0.75;exitDx=0;exitDy=0;" edge="1" parent="wo1vXCDjuEzKBGnD0IXy-1" source="wo1vXCDjuEzKBGnD0IXy-39">
          <mxGeometry width="50" height="50" relative="1" as="geometry">
            <mxPoint x="400" y="650" as="sourcePoint" />
            <mxPoint x="436" y="448" as="targetPoint" />
          </mxGeometry>
        </mxCell>
        <mxCell id="wo1vXCDjuEzKBGnD0IXy-45" value="view item" style="endArrow=classic;html=1;rounded=0;entryX=1;entryY=0.688;entryDx=0;entryDy=0;entryPerimeter=0;exitX=0.025;exitY=0.688;exitDx=0;exitDy=0;exitPerimeter=0;" edge="1" parent="wo1vXCDjuEzKBGnD0IXy-1">
          <mxGeometry width="50" height="50" relative="1" as="geometry">
            <mxPoint x="362" y="445" as="sourcePoint" />
            <mxPoint x="200" y="445" as="targetPoint" />
          </mxGeometry>
        </mxCell>
        <mxCell id="wo1vXCDjuEzKBGnD0IXy-46" value="Manage order" style="ellipse;shape=doubleEllipse;whiteSpace=wrap;html=1;aspect=fixed;" vertex="1" parent="wo1vXCDjuEzKBGnD0IXy-1">
          <mxGeometry x="360" y="389" width="80" height="80" as="geometry" />
        </mxCell>
        <mxCell id="wo1vXCDjuEzKBGnD0IXy-47" value="Admin" style="shape=partialRectangle;whiteSpace=wrap;html=1;left=0;right=0;fillColor=none;" vertex="1" parent="wo1vXCDjuEzKBGnD0IXy-1">
          <mxGeometry x="80" y="490" width="120" height="60" as="geometry" />
        </mxCell>
        <mxCell id="wo1vXCDjuEzKBGnD0IXy-48" value="reports" style="shape=partialRectangle;whiteSpace=wrap;html=1;left=0;right=0;fillColor=none;" vertex="1" parent="wo1vXCDjuEzKBGnD0IXy-1">
          <mxGeometry x="600" y="490" width="120" height="60" as="geometry" />
        </mxCell>
        <mxCell id="wo1vXCDjuEzKBGnD0IXy-49" value="" style="endArrow=classic;html=1;rounded=0;entryX=0.025;entryY=0.288;entryDx=0;entryDy=0;entryPerimeter=0;" edge="1" parent="wo1vXCDjuEzKBGnD0IXy-1">
          <mxGeometry width="50" height="50" relative="1" as="geometry">
            <mxPoint x="210" y="503" as="sourcePoint" />
            <mxPoint x="362" y="503" as="targetPoint" />
          </mxGeometry>
        </mxCell>
        <mxCell id="wo1vXCDjuEzKBGnD0IXy-50" value="update report" style="edgeLabel;html=1;align=center;verticalAlign=middle;resizable=0;points=[];" vertex="1" connectable="0" parent="wo1vXCDjuEzKBGnD0IXy-49">
          <mxGeometry x="-0.4474" y="-1" relative="1" as="geometry">
            <mxPoint x="20" as="offset" />
          </mxGeometry>
        </mxCell>
        <mxCell id="wo1vXCDjuEzKBGnD0IXy-51" value="" style="endArrow=classic;html=1;rounded=0;entryX=0;entryY=0.25;entryDx=0;entryDy=0;exitX=0.975;exitY=0.325;exitDx=0;exitDy=0;exitPerimeter=0;" edge="1" parent="wo1vXCDjuEzKBGnD0IXy-1" target="wo1vXCDjuEzKBGnD0IXy-48">
          <mxGeometry width="50" height="50" relative="1" as="geometry">
            <mxPoint x="438" y="506" as="sourcePoint" />
            <mxPoint x="372" y="513" as="targetPoint" />
          </mxGeometry>
        </mxCell>
        <mxCell id="wo1vXCDjuEzKBGnD0IXy-52" value="add report data" style="edgeLabel;html=1;align=center;verticalAlign=middle;resizable=0;points=[];" vertex="1" connectable="0" parent="wo1vXCDjuEzKBGnD0IXy-51">
          <mxGeometry x="-0.0495" y="-1" relative="1" as="geometry">
            <mxPoint as="offset" />
          </mxGeometry>
        </mxCell>
        <mxCell id="wo1vXCDjuEzKBGnD0IXy-53" value="update" style="endArrow=classic;html=1;rounded=0;entryX=0.95;entryY=0.725;entryDx=0;entryDy=0;entryPerimeter=0;exitX=0;exitY=0.75;exitDx=0;exitDy=0;" edge="1" parent="wo1vXCDjuEzKBGnD0IXy-1" source="wo1vXCDjuEzKBGnD0IXy-48">
          <mxGeometry width="50" height="50" relative="1" as="geometry">
            <mxPoint x="400" y="740" as="sourcePoint" />
            <mxPoint x="436" y="538" as="targetPoint" />
          </mxGeometry>
        </mxCell>
        <mxCell id="wo1vXCDjuEzKBGnD0IXy-54" value="view report" style="endArrow=classic;html=1;rounded=0;entryX=1;entryY=0.688;entryDx=0;entryDy=0;entryPerimeter=0;exitX=0.025;exitY=0.688;exitDx=0;exitDy=0;exitPerimeter=0;" edge="1" parent="wo1vXCDjuEzKBGnD0IXy-1">
          <mxGeometry width="50" height="50" relative="1" as="geometry">
            <mxPoint x="362" y="535" as="sourcePoint" />
            <mxPoint x="200" y="535" as="targetPoint" />
          </mxGeometry>
        </mxCell>
        <mxCell id="wo1vXCDjuEzKBGnD0IXy-55" value="Manage Report" style="ellipse;shape=doubleEllipse;whiteSpace=wrap;html=1;aspect=fixed;" vertex="1" parent="wo1vXCDjuEzKBGnD0IXy-1">
          <mxGeometry x="360" y="480" width="80" height="80" as="geometry" />
        </mxCell>
      </root>
    </mxGraphModel>
  </diagram>
  <diagram id="z_s7dcF2Y1odBoQ1eQad" name="ERD">
    <mxGraphModel dx="864" dy="516" grid="1" gridSize="10" guides="1" tooltips="1" connect="1" arrows="1" fold="1" page="1" pageScale="1" pageWidth="850" pageHeight="1100" math="0" shadow="0">
      <root>
        <mxCell id="0" />
        <mxCell id="1" parent="0" />
        <mxCell id="G6BTwIpiXI_2tAvSf5tW-18" value="users" style="shape=table;startSize=30;container=1;collapsible=1;childLayout=tableLayout;fixedRows=1;rowLines=0;fontStyle=1;align=center;resizeLast=1;html=1;" vertex="1" parent="1">
          <mxGeometry x="40" y="40" width="180" height="150" as="geometry" />
        </mxCell>
        <mxCell id="G6BTwIpiXI_2tAvSf5tW-19" value="" style="shape=tableRow;horizontal=0;startSize=0;swimlaneHead=0;swimlaneBody=0;fillColor=none;collapsible=0;dropTarget=0;points=[[0,0.5],[1,0.5]];portConstraint=eastwest;top=0;left=0;right=0;bottom=1;" vertex="1" parent="G6BTwIpiXI_2tAvSf5tW-18">
          <mxGeometry y="30" width="180" height="30" as="geometry" />
        </mxCell>
        <mxCell id="G6BTwIpiXI_2tAvSf5tW-20" value="PK" style="shape=partialRectangle;connectable=0;fillColor=none;top=0;left=0;bottom=0;right=0;fontStyle=1;overflow=hidden;whiteSpace=wrap;html=1;" vertex="1" parent="G6BTwIpiXI_2tAvSf5tW-19">
          <mxGeometry width="30" height="30" as="geometry">
            <mxRectangle width="30" height="30" as="alternateBounds" />
          </mxGeometry>
        </mxCell>
        <mxCell id="G6BTwIpiXI_2tAvSf5tW-21" value="user_id" style="shape=partialRectangle;connectable=0;fillColor=none;top=0;left=0;bottom=0;right=0;align=left;spacingLeft=6;fontStyle=5;overflow=hidden;whiteSpace=wrap;html=1;" vertex="1" parent="G6BTwIpiXI_2tAvSf5tW-19">
          <mxGeometry x="30" width="150" height="30" as="geometry">
            <mxRectangle width="150" height="30" as="alternateBounds" />
          </mxGeometry>
        </mxCell>
        <mxCell id="G6BTwIpiXI_2tAvSf5tW-22" value="" style="shape=tableRow;horizontal=0;startSize=0;swimlaneHead=0;swimlaneBody=0;fillColor=none;collapsible=0;dropTarget=0;points=[[0,0.5],[1,0.5]];portConstraint=eastwest;top=0;left=0;right=0;bottom=0;" vertex="1" parent="G6BTwIpiXI_2tAvSf5tW-18">
          <mxGeometry y="60" width="180" height="30" as="geometry" />
        </mxCell>
        <mxCell id="G6BTwIpiXI_2tAvSf5tW-23" value="" style="shape=partialRectangle;connectable=0;fillColor=none;top=0;left=0;bottom=0;right=0;editable=1;overflow=hidden;whiteSpace=wrap;html=1;" vertex="1" parent="G6BTwIpiXI_2tAvSf5tW-22">
          <mxGeometry width="30" height="30" as="geometry">
            <mxRectangle width="30" height="30" as="alternateBounds" />
          </mxGeometry>
        </mxCell>
        <mxCell id="G6BTwIpiXI_2tAvSf5tW-24" value="user_name" style="shape=partialRectangle;connectable=0;fillColor=none;top=0;left=0;bottom=0;right=0;align=left;spacingLeft=6;overflow=hidden;whiteSpace=wrap;html=1;" vertex="1" parent="G6BTwIpiXI_2tAvSf5tW-22">
          <mxGeometry x="30" width="150" height="30" as="geometry">
            <mxRectangle width="150" height="30" as="alternateBounds" />
          </mxGeometry>
        </mxCell>
        <mxCell id="G6BTwIpiXI_2tAvSf5tW-25" value="" style="shape=tableRow;horizontal=0;startSize=0;swimlaneHead=0;swimlaneBody=0;fillColor=none;collapsible=0;dropTarget=0;points=[[0,0.5],[1,0.5]];portConstraint=eastwest;top=0;left=0;right=0;bottom=0;" vertex="1" parent="G6BTwIpiXI_2tAvSf5tW-18">
          <mxGeometry y="90" width="180" height="30" as="geometry" />
        </mxCell>
        <mxCell id="G6BTwIpiXI_2tAvSf5tW-26" value="" style="shape=partialRectangle;connectable=0;fillColor=none;top=0;left=0;bottom=0;right=0;editable=1;overflow=hidden;whiteSpace=wrap;html=1;" vertex="1" parent="G6BTwIpiXI_2tAvSf5tW-25">
          <mxGeometry width="30" height="30" as="geometry">
            <mxRectangle width="30" height="30" as="alternateBounds" />
          </mxGeometry>
        </mxCell>
        <mxCell id="G6BTwIpiXI_2tAvSf5tW-27" value="email_id" style="shape=partialRectangle;connectable=0;fillColor=none;top=0;left=0;bottom=0;right=0;align=left;spacingLeft=6;overflow=hidden;whiteSpace=wrap;html=1;" vertex="1" parent="G6BTwIpiXI_2tAvSf5tW-25">
          <mxGeometry x="30" width="150" height="30" as="geometry">
            <mxRectangle width="150" height="30" as="alternateBounds" />
          </mxGeometry>
        </mxCell>
        <mxCell id="G6BTwIpiXI_2tAvSf5tW-28" value="" style="shape=tableRow;horizontal=0;startSize=0;swimlaneHead=0;swimlaneBody=0;fillColor=none;collapsible=0;dropTarget=0;points=[[0,0.5],[1,0.5]];portConstraint=eastwest;top=0;left=0;right=0;bottom=0;" vertex="1" parent="G6BTwIpiXI_2tAvSf5tW-18">
          <mxGeometry y="120" width="180" height="30" as="geometry" />
        </mxCell>
        <mxCell id="G6BTwIpiXI_2tAvSf5tW-29" value="" style="shape=partialRectangle;connectable=0;fillColor=none;top=0;left=0;bottom=0;right=0;editable=1;overflow=hidden;whiteSpace=wrap;html=1;" vertex="1" parent="G6BTwIpiXI_2tAvSf5tW-28">
          <mxGeometry width="30" height="30" as="geometry">
            <mxRectangle width="30" height="30" as="alternateBounds" />
          </mxGeometry>
        </mxCell>
        <mxCell id="G6BTwIpiXI_2tAvSf5tW-30" value="password" style="shape=partialRectangle;connectable=0;fillColor=none;top=0;left=0;bottom=0;right=0;align=left;spacingLeft=6;overflow=hidden;whiteSpace=wrap;html=1;" vertex="1" parent="G6BTwIpiXI_2tAvSf5tW-28">
          <mxGeometry x="30" width="150" height="30" as="geometry">
            <mxRectangle width="150" height="30" as="alternateBounds" />
          </mxGeometry>
        </mxCell>
        <mxCell id="Tvl3Wu0ww_iyzUCtk3lj-1" value="items" style="shape=table;startSize=30;container=1;collapsible=1;childLayout=tableLayout;fixedRows=1;rowLines=0;fontStyle=1;align=center;resizeLast=1;html=1;" vertex="1" parent="1">
          <mxGeometry x="500" y="40" width="180" height="150" as="geometry" />
        </mxCell>
        <mxCell id="Tvl3Wu0ww_iyzUCtk3lj-2" value="" style="shape=tableRow;horizontal=0;startSize=0;swimlaneHead=0;swimlaneBody=0;fillColor=none;collapsible=0;dropTarget=0;points=[[0,0.5],[1,0.5]];portConstraint=eastwest;top=0;left=0;right=0;bottom=1;" vertex="1" parent="Tvl3Wu0ww_iyzUCtk3lj-1">
          <mxGeometry y="30" width="180" height="30" as="geometry" />
        </mxCell>
        <mxCell id="Tvl3Wu0ww_iyzUCtk3lj-3" value="PK" style="shape=partialRectangle;connectable=0;fillColor=none;top=0;left=0;bottom=0;right=0;fontStyle=1;overflow=hidden;whiteSpace=wrap;html=1;" vertex="1" parent="Tvl3Wu0ww_iyzUCtk3lj-2">
          <mxGeometry width="30" height="30" as="geometry">
            <mxRectangle width="30" height="30" as="alternateBounds" />
          </mxGeometry>
        </mxCell>
        <mxCell id="Tvl3Wu0ww_iyzUCtk3lj-4" value="items_id" style="shape=partialRectangle;connectable=0;fillColor=none;top=0;left=0;bottom=0;right=0;align=left;spacingLeft=6;fontStyle=5;overflow=hidden;whiteSpace=wrap;html=1;" vertex="1" parent="Tvl3Wu0ww_iyzUCtk3lj-2">
          <mxGeometry x="30" width="150" height="30" as="geometry">
            <mxRectangle width="150" height="30" as="alternateBounds" />
          </mxGeometry>
        </mxCell>
        <mxCell id="Tvl3Wu0ww_iyzUCtk3lj-5" value="" style="shape=tableRow;horizontal=0;startSize=0;swimlaneHead=0;swimlaneBody=0;fillColor=none;collapsible=0;dropTarget=0;points=[[0,0.5],[1,0.5]];portConstraint=eastwest;top=0;left=0;right=0;bottom=0;" vertex="1" parent="Tvl3Wu0ww_iyzUCtk3lj-1">
          <mxGeometry y="60" width="180" height="30" as="geometry" />
        </mxCell>
        <mxCell id="Tvl3Wu0ww_iyzUCtk3lj-6" value="FK" style="shape=partialRectangle;connectable=0;fillColor=none;top=0;left=0;bottom=0;right=0;editable=1;overflow=hidden;whiteSpace=wrap;html=1;" vertex="1" parent="Tvl3Wu0ww_iyzUCtk3lj-5">
          <mxGeometry width="30" height="30" as="geometry">
            <mxRectangle width="30" height="30" as="alternateBounds" />
          </mxGeometry>
        </mxCell>
        <mxCell id="Tvl3Wu0ww_iyzUCtk3lj-7" value="catagory_id" style="shape=partialRectangle;connectable=0;fillColor=none;top=0;left=0;bottom=0;right=0;align=left;spacingLeft=6;overflow=hidden;whiteSpace=wrap;html=1;" vertex="1" parent="Tvl3Wu0ww_iyzUCtk3lj-5">
          <mxGeometry x="30" width="150" height="30" as="geometry">
            <mxRectangle width="150" height="30" as="alternateBounds" />
          </mxGeometry>
        </mxCell>
        <mxCell id="Tvl3Wu0ww_iyzUCtk3lj-8" value="" style="shape=tableRow;horizontal=0;startSize=0;swimlaneHead=0;swimlaneBody=0;fillColor=none;collapsible=0;dropTarget=0;points=[[0,0.5],[1,0.5]];portConstraint=eastwest;top=0;left=0;right=0;bottom=0;" vertex="1" parent="Tvl3Wu0ww_iyzUCtk3lj-1">
          <mxGeometry y="90" width="180" height="30" as="geometry" />
        </mxCell>
        <mxCell id="Tvl3Wu0ww_iyzUCtk3lj-9" value="" style="shape=partialRectangle;connectable=0;fillColor=none;top=0;left=0;bottom=0;right=0;editable=1;overflow=hidden;whiteSpace=wrap;html=1;" vertex="1" parent="Tvl3Wu0ww_iyzUCtk3lj-8">
          <mxGeometry width="30" height="30" as="geometry">
            <mxRectangle width="30" height="30" as="alternateBounds" />
          </mxGeometry>
        </mxCell>
        <mxCell id="Tvl3Wu0ww_iyzUCtk3lj-10" value="item_name" style="shape=partialRectangle;connectable=0;fillColor=none;top=0;left=0;bottom=0;right=0;align=left;spacingLeft=6;overflow=hidden;whiteSpace=wrap;html=1;" vertex="1" parent="Tvl3Wu0ww_iyzUCtk3lj-8">
          <mxGeometry x="30" width="150" height="30" as="geometry">
            <mxRectangle width="150" height="30" as="alternateBounds" />
          </mxGeometry>
        </mxCell>
        <mxCell id="Tvl3Wu0ww_iyzUCtk3lj-11" value="" style="shape=tableRow;horizontal=0;startSize=0;swimlaneHead=0;swimlaneBody=0;fillColor=none;collapsible=0;dropTarget=0;points=[[0,0.5],[1,0.5]];portConstraint=eastwest;top=0;left=0;right=0;bottom=0;" vertex="1" parent="Tvl3Wu0ww_iyzUCtk3lj-1">
          <mxGeometry y="120" width="180" height="30" as="geometry" />
        </mxCell>
        <mxCell id="Tvl3Wu0ww_iyzUCtk3lj-12" value="" style="shape=partialRectangle;connectable=0;fillColor=none;top=0;left=0;bottom=0;right=0;editable=1;overflow=hidden;whiteSpace=wrap;html=1;" vertex="1" parent="Tvl3Wu0ww_iyzUCtk3lj-11">
          <mxGeometry width="30" height="30" as="geometry">
            <mxRectangle width="30" height="30" as="alternateBounds" />
          </mxGeometry>
        </mxCell>
        <mxCell id="Tvl3Wu0ww_iyzUCtk3lj-13" value="item_price" style="shape=partialRectangle;connectable=0;fillColor=none;top=0;left=0;bottom=0;right=0;align=left;spacingLeft=6;overflow=hidden;whiteSpace=wrap;html=1;" vertex="1" parent="Tvl3Wu0ww_iyzUCtk3lj-11">
          <mxGeometry x="30" width="150" height="30" as="geometry">
            <mxRectangle width="150" height="30" as="alternateBounds" />
          </mxGeometry>
        </mxCell>
        <mxCell id="Pijhmkj2QFVZElzynOQ4-1" value="accounts" style="shape=table;startSize=30;container=1;collapsible=1;childLayout=tableLayout;fixedRows=1;rowLines=0;fontStyle=1;align=center;resizeLast=1;html=1;" vertex="1" parent="1">
          <mxGeometry x="40" y="240" width="180" height="150" as="geometry" />
        </mxCell>
        <mxCell id="Pijhmkj2QFVZElzynOQ4-2" value="" style="shape=tableRow;horizontal=0;startSize=0;swimlaneHead=0;swimlaneBody=0;fillColor=none;collapsible=0;dropTarget=0;points=[[0,0.5],[1,0.5]];portConstraint=eastwest;top=0;left=0;right=0;bottom=1;" vertex="1" parent="Pijhmkj2QFVZElzynOQ4-1">
          <mxGeometry y="30" width="180" height="30" as="geometry" />
        </mxCell>
        <mxCell id="Pijhmkj2QFVZElzynOQ4-3" value="PK" style="shape=partialRectangle;connectable=0;fillColor=none;top=0;left=0;bottom=0;right=0;fontStyle=1;overflow=hidden;whiteSpace=wrap;html=1;" vertex="1" parent="Pijhmkj2QFVZElzynOQ4-2">
          <mxGeometry width="30" height="30" as="geometry">
            <mxRectangle width="30" height="30" as="alternateBounds" />
          </mxGeometry>
        </mxCell>
        <mxCell id="Pijhmkj2QFVZElzynOQ4-4" value="account_id" style="shape=partialRectangle;connectable=0;fillColor=none;top=0;left=0;bottom=0;right=0;align=left;spacingLeft=6;fontStyle=5;overflow=hidden;whiteSpace=wrap;html=1;" vertex="1" parent="Pijhmkj2QFVZElzynOQ4-2">
          <mxGeometry x="30" width="150" height="30" as="geometry">
            <mxRectangle width="150" height="30" as="alternateBounds" />
          </mxGeometry>
        </mxCell>
        <mxCell id="Pijhmkj2QFVZElzynOQ4-5" value="" style="shape=tableRow;horizontal=0;startSize=0;swimlaneHead=0;swimlaneBody=0;fillColor=none;collapsible=0;dropTarget=0;points=[[0,0.5],[1,0.5]];portConstraint=eastwest;top=0;left=0;right=0;bottom=0;" vertex="1" parent="Pijhmkj2QFVZElzynOQ4-1">
          <mxGeometry y="60" width="180" height="30" as="geometry" />
        </mxCell>
        <mxCell id="Pijhmkj2QFVZElzynOQ4-6" value="FK" style="shape=partialRectangle;connectable=0;fillColor=none;top=0;left=0;bottom=0;right=0;editable=1;overflow=hidden;whiteSpace=wrap;html=1;" vertex="1" parent="Pijhmkj2QFVZElzynOQ4-5">
          <mxGeometry width="30" height="30" as="geometry">
            <mxRectangle width="30" height="30" as="alternateBounds" />
          </mxGeometry>
        </mxCell>
        <mxCell id="Pijhmkj2QFVZElzynOQ4-7" value="user_id" style="shape=partialRectangle;connectable=0;fillColor=none;top=0;left=0;bottom=0;right=0;align=left;spacingLeft=6;overflow=hidden;whiteSpace=wrap;html=1;" vertex="1" parent="Pijhmkj2QFVZElzynOQ4-5">
          <mxGeometry x="30" width="150" height="30" as="geometry">
            <mxRectangle width="150" height="30" as="alternateBounds" />
          </mxGeometry>
        </mxCell>
        <mxCell id="Pijhmkj2QFVZElzynOQ4-8" value="" style="shape=tableRow;horizontal=0;startSize=0;swimlaneHead=0;swimlaneBody=0;fillColor=none;collapsible=0;dropTarget=0;points=[[0,0.5],[1,0.5]];portConstraint=eastwest;top=0;left=0;right=0;bottom=0;" vertex="1" parent="Pijhmkj2QFVZElzynOQ4-1">
          <mxGeometry y="90" width="180" height="30" as="geometry" />
        </mxCell>
        <mxCell id="Pijhmkj2QFVZElzynOQ4-9" value="" style="shape=partialRectangle;connectable=0;fillColor=none;top=0;left=0;bottom=0;right=0;editable=1;overflow=hidden;whiteSpace=wrap;html=1;" vertex="1" parent="Pijhmkj2QFVZElzynOQ4-8">
          <mxGeometry width="30" height="30" as="geometry">
            <mxRectangle width="30" height="30" as="alternateBounds" />
          </mxGeometry>
        </mxCell>
        <mxCell id="Pijhmkj2QFVZElzynOQ4-10" value="address" style="shape=partialRectangle;connectable=0;fillColor=none;top=0;left=0;bottom=0;right=0;align=left;spacingLeft=6;overflow=hidden;whiteSpace=wrap;html=1;" vertex="1" parent="Pijhmkj2QFVZElzynOQ4-8">
          <mxGeometry x="30" width="150" height="30" as="geometry">
            <mxRectangle width="150" height="30" as="alternateBounds" />
          </mxGeometry>
        </mxCell>
        <mxCell id="Pijhmkj2QFVZElzynOQ4-11" value="" style="shape=tableRow;horizontal=0;startSize=0;swimlaneHead=0;swimlaneBody=0;fillColor=none;collapsible=0;dropTarget=0;points=[[0,0.5],[1,0.5]];portConstraint=eastwest;top=0;left=0;right=0;bottom=0;" vertex="1" parent="Pijhmkj2QFVZElzynOQ4-1">
          <mxGeometry y="120" width="180" height="30" as="geometry" />
        </mxCell>
        <mxCell id="Pijhmkj2QFVZElzynOQ4-12" value="" style="shape=partialRectangle;connectable=0;fillColor=none;top=0;left=0;bottom=0;right=0;editable=1;overflow=hidden;whiteSpace=wrap;html=1;" vertex="1" parent="Pijhmkj2QFVZElzynOQ4-11">
          <mxGeometry width="30" height="30" as="geometry">
            <mxRectangle width="30" height="30" as="alternateBounds" />
          </mxGeometry>
        </mxCell>
        <mxCell id="Pijhmkj2QFVZElzynOQ4-13" value="contact_no" style="shape=partialRectangle;connectable=0;fillColor=none;top=0;left=0;bottom=0;right=0;align=left;spacingLeft=6;overflow=hidden;whiteSpace=wrap;html=1;" vertex="1" parent="Pijhmkj2QFVZElzynOQ4-11">
          <mxGeometry x="30" width="150" height="30" as="geometry">
            <mxRectangle width="150" height="30" as="alternateBounds" />
          </mxGeometry>
        </mxCell>
        <mxCell id="nLekaJxh1UyLxYFXH7qv-1" value="catagories" style="shape=table;startSize=30;container=1;collapsible=1;childLayout=tableLayout;fixedRows=1;rowLines=0;fontStyle=1;align=center;resizeLast=1;html=1;" vertex="1" parent="1">
          <mxGeometry x="270" y="40" width="180" height="150" as="geometry" />
        </mxCell>
        <mxCell id="nLekaJxh1UyLxYFXH7qv-2" value="" style="shape=tableRow;horizontal=0;startSize=0;swimlaneHead=0;swimlaneBody=0;fillColor=none;collapsible=0;dropTarget=0;points=[[0,0.5],[1,0.5]];portConstraint=eastwest;top=0;left=0;right=0;bottom=1;" vertex="1" parent="nLekaJxh1UyLxYFXH7qv-1">
          <mxGeometry y="30" width="180" height="30" as="geometry" />
        </mxCell>
        <mxCell id="nLekaJxh1UyLxYFXH7qv-3" value="PK" style="shape=partialRectangle;connectable=0;fillColor=none;top=0;left=0;bottom=0;right=0;fontStyle=1;overflow=hidden;whiteSpace=wrap;html=1;" vertex="1" parent="nLekaJxh1UyLxYFXH7qv-2">
          <mxGeometry width="30" height="30" as="geometry">
            <mxRectangle width="30" height="30" as="alternateBounds" />
          </mxGeometry>
        </mxCell>
        <mxCell id="nLekaJxh1UyLxYFXH7qv-4" value="catagory_id" style="shape=partialRectangle;connectable=0;fillColor=none;top=0;left=0;bottom=0;right=0;align=left;spacingLeft=6;fontStyle=5;overflow=hidden;whiteSpace=wrap;html=1;" vertex="1" parent="nLekaJxh1UyLxYFXH7qv-2">
          <mxGeometry x="30" width="150" height="30" as="geometry">
            <mxRectangle width="150" height="30" as="alternateBounds" />
          </mxGeometry>
        </mxCell>
        <mxCell id="nLekaJxh1UyLxYFXH7qv-5" value="" style="shape=tableRow;horizontal=0;startSize=0;swimlaneHead=0;swimlaneBody=0;fillColor=none;collapsible=0;dropTarget=0;points=[[0,0.5],[1,0.5]];portConstraint=eastwest;top=0;left=0;right=0;bottom=0;" vertex="1" parent="nLekaJxh1UyLxYFXH7qv-1">
          <mxGeometry y="60" width="180" height="30" as="geometry" />
        </mxCell>
        <mxCell id="nLekaJxh1UyLxYFXH7qv-6" value="" style="shape=partialRectangle;connectable=0;fillColor=none;top=0;left=0;bottom=0;right=0;editable=1;overflow=hidden;whiteSpace=wrap;html=1;" vertex="1" parent="nLekaJxh1UyLxYFXH7qv-5">
          <mxGeometry width="30" height="30" as="geometry">
            <mxRectangle width="30" height="30" as="alternateBounds" />
          </mxGeometry>
        </mxCell>
        <mxCell id="nLekaJxh1UyLxYFXH7qv-7" value="catagory_name" style="shape=partialRectangle;connectable=0;fillColor=none;top=0;left=0;bottom=0;right=0;align=left;spacingLeft=6;overflow=hidden;whiteSpace=wrap;html=1;" vertex="1" parent="nLekaJxh1UyLxYFXH7qv-5">
          <mxGeometry x="30" width="150" height="30" as="geometry">
            <mxRectangle width="150" height="30" as="alternateBounds" />
          </mxGeometry>
        </mxCell>
        <mxCell id="nLekaJxh1UyLxYFXH7qv-8" value="" style="shape=tableRow;horizontal=0;startSize=0;swimlaneHead=0;swimlaneBody=0;fillColor=none;collapsible=0;dropTarget=0;points=[[0,0.5],[1,0.5]];portConstraint=eastwest;top=0;left=0;right=0;bottom=0;" vertex="1" parent="nLekaJxh1UyLxYFXH7qv-1">
          <mxGeometry y="90" width="180" height="30" as="geometry" />
        </mxCell>
        <mxCell id="nLekaJxh1UyLxYFXH7qv-9" value="" style="shape=partialRectangle;connectable=0;fillColor=none;top=0;left=0;bottom=0;right=0;editable=1;overflow=hidden;whiteSpace=wrap;html=1;" vertex="1" parent="nLekaJxh1UyLxYFXH7qv-8">
          <mxGeometry width="30" height="30" as="geometry">
            <mxRectangle width="30" height="30" as="alternateBounds" />
          </mxGeometry>
        </mxCell>
        <mxCell id="nLekaJxh1UyLxYFXH7qv-10" value="" style="shape=partialRectangle;connectable=0;fillColor=none;top=0;left=0;bottom=0;right=0;align=left;spacingLeft=6;overflow=hidden;whiteSpace=wrap;html=1;" vertex="1" parent="nLekaJxh1UyLxYFXH7qv-8">
          <mxGeometry x="30" width="150" height="30" as="geometry">
            <mxRectangle width="150" height="30" as="alternateBounds" />
          </mxGeometry>
        </mxCell>
        <mxCell id="nLekaJxh1UyLxYFXH7qv-11" value="" style="shape=tableRow;horizontal=0;startSize=0;swimlaneHead=0;swimlaneBody=0;fillColor=none;collapsible=0;dropTarget=0;points=[[0,0.5],[1,0.5]];portConstraint=eastwest;top=0;left=0;right=0;bottom=0;" vertex="1" parent="nLekaJxh1UyLxYFXH7qv-1">
          <mxGeometry y="120" width="180" height="30" as="geometry" />
        </mxCell>
        <mxCell id="nLekaJxh1UyLxYFXH7qv-12" value="" style="shape=partialRectangle;connectable=0;fillColor=none;top=0;left=0;bottom=0;right=0;editable=1;overflow=hidden;whiteSpace=wrap;html=1;" vertex="1" parent="nLekaJxh1UyLxYFXH7qv-11">
          <mxGeometry width="30" height="30" as="geometry">
            <mxRectangle width="30" height="30" as="alternateBounds" />
          </mxGeometry>
        </mxCell>
        <mxCell id="nLekaJxh1UyLxYFXH7qv-13" value="" style="shape=partialRectangle;connectable=0;fillColor=none;top=0;left=0;bottom=0;right=0;align=left;spacingLeft=6;overflow=hidden;whiteSpace=wrap;html=1;" vertex="1" parent="nLekaJxh1UyLxYFXH7qv-11">
          <mxGeometry x="30" width="150" height="30" as="geometry">
            <mxRectangle width="150" height="30" as="alternateBounds" />
          </mxGeometry>
        </mxCell>
        <mxCell id="nLekaJxh1UyLxYFXH7qv-14" value="orders" style="shape=table;startSize=30;container=1;collapsible=1;childLayout=tableLayout;fixedRows=1;rowLines=0;fontStyle=1;align=center;resizeLast=1;html=1;" vertex="1" parent="1">
          <mxGeometry x="310" y="220" width="180" height="150" as="geometry" />
        </mxCell>
        <mxCell id="nLekaJxh1UyLxYFXH7qv-15" value="" style="shape=tableRow;horizontal=0;startSize=0;swimlaneHead=0;swimlaneBody=0;fillColor=none;collapsible=0;dropTarget=0;points=[[0,0.5],[1,0.5]];portConstraint=eastwest;top=0;left=0;right=0;bottom=1;" vertex="1" parent="nLekaJxh1UyLxYFXH7qv-14">
          <mxGeometry y="30" width="180" height="30" as="geometry" />
        </mxCell>
        <mxCell id="nLekaJxh1UyLxYFXH7qv-16" value="PK" style="shape=partialRectangle;connectable=0;fillColor=none;top=0;left=0;bottom=0;right=0;fontStyle=1;overflow=hidden;whiteSpace=wrap;html=1;" vertex="1" parent="nLekaJxh1UyLxYFXH7qv-15">
          <mxGeometry width="30" height="30" as="geometry">
            <mxRectangle width="30" height="30" as="alternateBounds" />
          </mxGeometry>
        </mxCell>
        <mxCell id="nLekaJxh1UyLxYFXH7qv-17" value="order_id" style="shape=partialRectangle;connectable=0;fillColor=none;top=0;left=0;bottom=0;right=0;align=left;spacingLeft=6;fontStyle=5;overflow=hidden;whiteSpace=wrap;html=1;" vertex="1" parent="nLekaJxh1UyLxYFXH7qv-15">
          <mxGeometry x="30" width="150" height="30" as="geometry">
            <mxRectangle width="150" height="30" as="alternateBounds" />
          </mxGeometry>
        </mxCell>
        <mxCell id="nLekaJxh1UyLxYFXH7qv-18" value="" style="shape=tableRow;horizontal=0;startSize=0;swimlaneHead=0;swimlaneBody=0;fillColor=none;collapsible=0;dropTarget=0;points=[[0,0.5],[1,0.5]];portConstraint=eastwest;top=0;left=0;right=0;bottom=0;" vertex="1" parent="nLekaJxh1UyLxYFXH7qv-14">
          <mxGeometry y="60" width="180" height="30" as="geometry" />
        </mxCell>
        <mxCell id="nLekaJxh1UyLxYFXH7qv-19" value="FK" style="shape=partialRectangle;connectable=0;fillColor=none;top=0;left=0;bottom=0;right=0;editable=1;overflow=hidden;whiteSpace=wrap;html=1;" vertex="1" parent="nLekaJxh1UyLxYFXH7qv-18">
          <mxGeometry width="30" height="30" as="geometry">
            <mxRectangle width="30" height="30" as="alternateBounds" />
          </mxGeometry>
        </mxCell>
        <mxCell id="nLekaJxh1UyLxYFXH7qv-20" value="item_id" style="shape=partialRectangle;connectable=0;fillColor=none;top=0;left=0;bottom=0;right=0;align=left;spacingLeft=6;overflow=hidden;whiteSpace=wrap;html=1;" vertex="1" parent="nLekaJxh1UyLxYFXH7qv-18">
          <mxGeometry x="30" width="150" height="30" as="geometry">
            <mxRectangle width="150" height="30" as="alternateBounds" />
          </mxGeometry>
        </mxCell>
        <mxCell id="nLekaJxh1UyLxYFXH7qv-21" value="" style="shape=tableRow;horizontal=0;startSize=0;swimlaneHead=0;swimlaneBody=0;fillColor=none;collapsible=0;dropTarget=0;points=[[0,0.5],[1,0.5]];portConstraint=eastwest;top=0;left=0;right=0;bottom=0;" vertex="1" parent="nLekaJxh1UyLxYFXH7qv-14">
          <mxGeometry y="90" width="180" height="30" as="geometry" />
        </mxCell>
        <mxCell id="nLekaJxh1UyLxYFXH7qv-22" value="" style="shape=partialRectangle;connectable=0;fillColor=none;top=0;left=0;bottom=0;right=0;editable=1;overflow=hidden;whiteSpace=wrap;html=1;" vertex="1" parent="nLekaJxh1UyLxYFXH7qv-21">
          <mxGeometry width="30" height="30" as="geometry">
            <mxRectangle width="30" height="30" as="alternateBounds" />
          </mxGeometry>
        </mxCell>
        <mxCell id="nLekaJxh1UyLxYFXH7qv-23" value="order_date" style="shape=partialRectangle;connectable=0;fillColor=none;top=0;left=0;bottom=0;right=0;align=left;spacingLeft=6;overflow=hidden;whiteSpace=wrap;html=1;" vertex="1" parent="nLekaJxh1UyLxYFXH7qv-21">
          <mxGeometry x="30" width="150" height="30" as="geometry">
            <mxRectangle width="150" height="30" as="alternateBounds" />
          </mxGeometry>
        </mxCell>
        <mxCell id="nLekaJxh1UyLxYFXH7qv-24" value="" style="shape=tableRow;horizontal=0;startSize=0;swimlaneHead=0;swimlaneBody=0;fillColor=none;collapsible=0;dropTarget=0;points=[[0,0.5],[1,0.5]];portConstraint=eastwest;top=0;left=0;right=0;bottom=0;" vertex="1" parent="nLekaJxh1UyLxYFXH7qv-14">
          <mxGeometry y="120" width="180" height="30" as="geometry" />
        </mxCell>
        <mxCell id="nLekaJxh1UyLxYFXH7qv-25" value="" style="shape=partialRectangle;connectable=0;fillColor=none;top=0;left=0;bottom=0;right=0;editable=1;overflow=hidden;whiteSpace=wrap;html=1;" vertex="1" parent="nLekaJxh1UyLxYFXH7qv-24">
          <mxGeometry width="30" height="30" as="geometry">
            <mxRectangle width="30" height="30" as="alternateBounds" />
          </mxGeometry>
        </mxCell>
        <mxCell id="nLekaJxh1UyLxYFXH7qv-26" value="oder_amount" style="shape=partialRectangle;connectable=0;fillColor=none;top=0;left=0;bottom=0;right=0;align=left;spacingLeft=6;overflow=hidden;whiteSpace=wrap;html=1;" vertex="1" parent="nLekaJxh1UyLxYFXH7qv-24">
          <mxGeometry x="30" width="150" height="30" as="geometry">
            <mxRectangle width="150" height="30" as="alternateBounds" />
          </mxGeometry>
        </mxCell>
        <mxCell id="JJa9HElMrSx68TIlRU5U-1" value="payments" style="shape=table;startSize=30;container=1;collapsible=1;childLayout=tableLayout;fixedRows=1;rowLines=0;fontStyle=1;align=center;resizeLast=1;html=1;" vertex="1" parent="1">
          <mxGeometry x="530" y="360" width="180" height="180" as="geometry" />
        </mxCell>
        <mxCell id="JJa9HElMrSx68TIlRU5U-2" value="" style="shape=tableRow;horizontal=0;startSize=0;swimlaneHead=0;swimlaneBody=0;fillColor=none;collapsible=0;dropTarget=0;points=[[0,0.5],[1,0.5]];portConstraint=eastwest;top=0;left=0;right=0;bottom=1;" vertex="1" parent="JJa9HElMrSx68TIlRU5U-1">
          <mxGeometry y="30" width="180" height="30" as="geometry" />
        </mxCell>
        <mxCell id="JJa9HElMrSx68TIlRU5U-3" value="PK" style="shape=partialRectangle;connectable=0;fillColor=none;top=0;left=0;bottom=0;right=0;fontStyle=1;overflow=hidden;whiteSpace=wrap;html=1;" vertex="1" parent="JJa9HElMrSx68TIlRU5U-2">
          <mxGeometry width="30" height="30" as="geometry">
            <mxRectangle width="30" height="30" as="alternateBounds" />
          </mxGeometry>
        </mxCell>
        <mxCell id="JJa9HElMrSx68TIlRU5U-4" value="payment_id" style="shape=partialRectangle;connectable=0;fillColor=none;top=0;left=0;bottom=0;right=0;align=left;spacingLeft=6;fontStyle=5;overflow=hidden;whiteSpace=wrap;html=1;" vertex="1" parent="JJa9HElMrSx68TIlRU5U-2">
          <mxGeometry x="30" width="150" height="30" as="geometry">
            <mxRectangle width="150" height="30" as="alternateBounds" />
          </mxGeometry>
        </mxCell>
        <mxCell id="JJa9HElMrSx68TIlRU5U-5" value="" style="shape=tableRow;horizontal=0;startSize=0;swimlaneHead=0;swimlaneBody=0;fillColor=none;collapsible=0;dropTarget=0;points=[[0,0.5],[1,0.5]];portConstraint=eastwest;top=0;left=0;right=0;bottom=0;" vertex="1" parent="JJa9HElMrSx68TIlRU5U-1">
          <mxGeometry y="60" width="180" height="30" as="geometry" />
        </mxCell>
        <mxCell id="JJa9HElMrSx68TIlRU5U-6" value="FK" style="shape=partialRectangle;connectable=0;fillColor=none;top=0;left=0;bottom=0;right=0;editable=1;overflow=hidden;whiteSpace=wrap;html=1;" vertex="1" parent="JJa9HElMrSx68TIlRU5U-5">
          <mxGeometry width="30" height="30" as="geometry">
            <mxRectangle width="30" height="30" as="alternateBounds" />
          </mxGeometry>
        </mxCell>
        <mxCell id="JJa9HElMrSx68TIlRU5U-7" value="account_id" style="shape=partialRectangle;connectable=0;fillColor=none;top=0;left=0;bottom=0;right=0;align=left;spacingLeft=6;overflow=hidden;whiteSpace=wrap;html=1;" vertex="1" parent="JJa9HElMrSx68TIlRU5U-5">
          <mxGeometry x="30" width="150" height="30" as="geometry">
            <mxRectangle width="150" height="30" as="alternateBounds" />
          </mxGeometry>
        </mxCell>
        <mxCell id="JJa9HElMrSx68TIlRU5U-8" value="" style="shape=tableRow;horizontal=0;startSize=0;swimlaneHead=0;swimlaneBody=0;fillColor=none;collapsible=0;dropTarget=0;points=[[0,0.5],[1,0.5]];portConstraint=eastwest;top=0;left=0;right=0;bottom=0;" vertex="1" parent="JJa9HElMrSx68TIlRU5U-1">
          <mxGeometry y="90" width="180" height="30" as="geometry" />
        </mxCell>
        <mxCell id="JJa9HElMrSx68TIlRU5U-9" value="" style="shape=partialRectangle;connectable=0;fillColor=none;top=0;left=0;bottom=0;right=0;editable=1;overflow=hidden;whiteSpace=wrap;html=1;" vertex="1" parent="JJa9HElMrSx68TIlRU5U-8">
          <mxGeometry width="30" height="30" as="geometry">
            <mxRectangle width="30" height="30" as="alternateBounds" />
          </mxGeometry>
        </mxCell>
        <mxCell id="JJa9HElMrSx68TIlRU5U-10" value="payment_type" style="shape=partialRectangle;connectable=0;fillColor=none;top=0;left=0;bottom=0;right=0;align=left;spacingLeft=6;overflow=hidden;whiteSpace=wrap;html=1;" vertex="1" parent="JJa9HElMrSx68TIlRU5U-8">
          <mxGeometry x="30" width="150" height="30" as="geometry">
            <mxRectangle width="150" height="30" as="alternateBounds" />
          </mxGeometry>
        </mxCell>
        <mxCell id="JJa9HElMrSx68TIlRU5U-11" value="" style="shape=tableRow;horizontal=0;startSize=0;swimlaneHead=0;swimlaneBody=0;fillColor=none;collapsible=0;dropTarget=0;points=[[0,0.5],[1,0.5]];portConstraint=eastwest;top=0;left=0;right=0;bottom=0;" vertex="1" parent="JJa9HElMrSx68TIlRU5U-1">
          <mxGeometry y="120" width="180" height="60" as="geometry" />
        </mxCell>
        <mxCell id="JJa9HElMrSx68TIlRU5U-12" value="" style="shape=partialRectangle;connectable=0;fillColor=none;top=0;left=0;bottom=0;right=0;editable=1;overflow=hidden;whiteSpace=wrap;html=1;" vertex="1" parent="JJa9HElMrSx68TIlRU5U-11">
          <mxGeometry width="30" height="60" as="geometry">
            <mxRectangle width="30" height="60" as="alternateBounds" />
          </mxGeometry>
        </mxCell>
        <mxCell id="JJa9HElMrSx68TIlRU5U-13" value="&lt;br&gt;payment_amount" style="shape=partialRectangle;connectable=0;fillColor=none;top=0;left=0;bottom=0;right=0;align=left;spacingLeft=6;overflow=hidden;whiteSpace=wrap;html=1;" vertex="1" parent="JJa9HElMrSx68TIlRU5U-11">
          <mxGeometry x="30" width="150" height="60" as="geometry">
            <mxRectangle width="150" height="60" as="alternateBounds" />
          </mxGeometry>
        </mxCell>
        <mxCell id="JJa9HElMrSx68TIlRU5U-14" value="admin" style="shape=table;startSize=30;container=1;collapsible=1;childLayout=tableLayout;fixedRows=1;rowLines=0;fontStyle=1;align=center;resizeLast=1;html=1;" vertex="1" parent="1">
          <mxGeometry x="620" y="200" width="180" height="150" as="geometry" />
        </mxCell>
        <mxCell id="JJa9HElMrSx68TIlRU5U-15" value="" style="shape=tableRow;horizontal=0;startSize=0;swimlaneHead=0;swimlaneBody=0;fillColor=none;collapsible=0;dropTarget=0;points=[[0,0.5],[1,0.5]];portConstraint=eastwest;top=0;left=0;right=0;bottom=1;" vertex="1" parent="JJa9HElMrSx68TIlRU5U-14">
          <mxGeometry y="30" width="180" height="30" as="geometry" />
        </mxCell>
        <mxCell id="JJa9HElMrSx68TIlRU5U-16" value="PK" style="shape=partialRectangle;connectable=0;fillColor=none;top=0;left=0;bottom=0;right=0;fontStyle=1;overflow=hidden;whiteSpace=wrap;html=1;" vertex="1" parent="JJa9HElMrSx68TIlRU5U-15">
          <mxGeometry width="30" height="30" as="geometry">
            <mxRectangle width="30" height="30" as="alternateBounds" />
          </mxGeometry>
        </mxCell>
        <mxCell id="JJa9HElMrSx68TIlRU5U-17" value="admin_id" style="shape=partialRectangle;connectable=0;fillColor=none;top=0;left=0;bottom=0;right=0;align=left;spacingLeft=6;fontStyle=5;overflow=hidden;whiteSpace=wrap;html=1;" vertex="1" parent="JJa9HElMrSx68TIlRU5U-15">
          <mxGeometry x="30" width="150" height="30" as="geometry">
            <mxRectangle width="150" height="30" as="alternateBounds" />
          </mxGeometry>
        </mxCell>
        <mxCell id="JJa9HElMrSx68TIlRU5U-18" value="" style="shape=tableRow;horizontal=0;startSize=0;swimlaneHead=0;swimlaneBody=0;fillColor=none;collapsible=0;dropTarget=0;points=[[0,0.5],[1,0.5]];portConstraint=eastwest;top=0;left=0;right=0;bottom=0;" vertex="1" parent="JJa9HElMrSx68TIlRU5U-14">
          <mxGeometry y="60" width="180" height="30" as="geometry" />
        </mxCell>
        <mxCell id="JJa9HElMrSx68TIlRU5U-19" value="" style="shape=partialRectangle;connectable=0;fillColor=none;top=0;left=0;bottom=0;right=0;editable=1;overflow=hidden;whiteSpace=wrap;html=1;" vertex="1" parent="JJa9HElMrSx68TIlRU5U-18">
          <mxGeometry width="30" height="30" as="geometry">
            <mxRectangle width="30" height="30" as="alternateBounds" />
          </mxGeometry>
        </mxCell>
        <mxCell id="JJa9HElMrSx68TIlRU5U-20" value="admin_name" style="shape=partialRectangle;connectable=0;fillColor=none;top=0;left=0;bottom=0;right=0;align=left;spacingLeft=6;overflow=hidden;whiteSpace=wrap;html=1;" vertex="1" parent="JJa9HElMrSx68TIlRU5U-18">
          <mxGeometry x="30" width="150" height="30" as="geometry">
            <mxRectangle width="150" height="30" as="alternateBounds" />
          </mxGeometry>
        </mxCell>
        <mxCell id="JJa9HElMrSx68TIlRU5U-21" value="" style="shape=tableRow;horizontal=0;startSize=0;swimlaneHead=0;swimlaneBody=0;fillColor=none;collapsible=0;dropTarget=0;points=[[0,0.5],[1,0.5]];portConstraint=eastwest;top=0;left=0;right=0;bottom=0;" vertex="1" parent="JJa9HElMrSx68TIlRU5U-14">
          <mxGeometry y="90" width="180" height="30" as="geometry" />
        </mxCell>
        <mxCell id="JJa9HElMrSx68TIlRU5U-22" value="" style="shape=partialRectangle;connectable=0;fillColor=none;top=0;left=0;bottom=0;right=0;editable=1;overflow=hidden;whiteSpace=wrap;html=1;" vertex="1" parent="JJa9HElMrSx68TIlRU5U-21">
          <mxGeometry width="30" height="30" as="geometry">
            <mxRectangle width="30" height="30" as="alternateBounds" />
          </mxGeometry>
        </mxCell>
        <mxCell id="JJa9HElMrSx68TIlRU5U-23" value="admin_role" style="shape=partialRectangle;connectable=0;fillColor=none;top=0;left=0;bottom=0;right=0;align=left;spacingLeft=6;overflow=hidden;whiteSpace=wrap;html=1;" vertex="1" parent="JJa9HElMrSx68TIlRU5U-21">
          <mxGeometry x="30" width="150" height="30" as="geometry">
            <mxRectangle width="150" height="30" as="alternateBounds" />
          </mxGeometry>
        </mxCell>
        <mxCell id="JJa9HElMrSx68TIlRU5U-24" value="" style="shape=tableRow;horizontal=0;startSize=0;swimlaneHead=0;swimlaneBody=0;fillColor=none;collapsible=0;dropTarget=0;points=[[0,0.5],[1,0.5]];portConstraint=eastwest;top=0;left=0;right=0;bottom=0;" vertex="1" parent="JJa9HElMrSx68TIlRU5U-14">
          <mxGeometry y="120" width="180" height="30" as="geometry" />
        </mxCell>
        <mxCell id="JJa9HElMrSx68TIlRU5U-25" value="" style="shape=partialRectangle;connectable=0;fillColor=none;top=0;left=0;bottom=0;right=0;editable=1;overflow=hidden;whiteSpace=wrap;html=1;" vertex="1" parent="JJa9HElMrSx68TIlRU5U-24">
          <mxGeometry width="30" height="30" as="geometry">
            <mxRectangle width="30" height="30" as="alternateBounds" />
          </mxGeometry>
        </mxCell>
        <mxCell id="JJa9HElMrSx68TIlRU5U-26" value="" style="shape=partialRectangle;connectable=0;fillColor=none;top=0;left=0;bottom=0;right=0;align=left;spacingLeft=6;overflow=hidden;whiteSpace=wrap;html=1;" vertex="1" parent="JJa9HElMrSx68TIlRU5U-24">
          <mxGeometry x="30" width="150" height="30" as="geometry">
            <mxRectangle width="150" height="30" as="alternateBounds" />
          </mxGeometry>
        </mxCell>
        <mxCell id="JJa9HElMrSx68TIlRU5U-29" value="" style="shape=tableRow;horizontal=0;startSize=0;swimlaneHead=0;swimlaneBody=0;fillColor=none;collapsible=0;dropTarget=0;points=[[0,0.5],[1,0.5]];portConstraint=eastwest;top=0;left=0;right=0;bottom=0;" vertex="1" parent="1">
          <mxGeometry x="50" y="430" width="180" height="30" as="geometry" />
        </mxCell>
        <mxCell id="JJa9HElMrSx68TIlRU5U-30" value="" style="shape=partialRectangle;connectable=0;fillColor=none;top=0;left=0;bottom=0;right=0;editable=1;overflow=hidden;whiteSpace=wrap;html=1;" vertex="1" parent="JJa9HElMrSx68TIlRU5U-29">
          <mxGeometry width="30" height="30" as="geometry">
            <mxRectangle width="30" height="30" as="alternateBounds" />
          </mxGeometry>
        </mxCell>
        <mxCell id="JJa9HElMrSx68TIlRU5U-31" value="payment_date" style="shape=partialRectangle;connectable=0;fillColor=none;top=0;left=0;bottom=0;right=0;align=left;spacingLeft=6;overflow=hidden;whiteSpace=wrap;html=1;" vertex="1" parent="1">
          <mxGeometry x="560" y="480" width="150" height="30" as="geometry">
            <mxRectangle width="150" height="30" as="alternateBounds" />
          </mxGeometry>
        </mxCell>
        <mxCell id="JJa9HElMrSx68TIlRU5U-32" value="" style="shape=partialRectangle;connectable=0;fillColor=none;top=0;left=0;bottom=0;right=0;editable=1;overflow=hidden;whiteSpace=wrap;html=1;" vertex="1" parent="1">
          <mxGeometry x="40" y="450" width="30" height="30" as="geometry">
            <mxRectangle width="30" height="30" as="alternateBounds" />
          </mxGeometry>
        </mxCell>
        <mxCell id="dcefjoT0X8gAKyCZeOqN-1" value="cart" style="shape=table;startSize=30;container=1;collapsible=1;childLayout=tableLayout;fixedRows=1;rowLines=0;fontStyle=1;align=center;resizeLast=1;html=1;" vertex="1" parent="1">
          <mxGeometry x="260" y="390" width="180" height="150" as="geometry" />
        </mxCell>
        <mxCell id="dcefjoT0X8gAKyCZeOqN-2" value="" style="shape=tableRow;horizontal=0;startSize=0;swimlaneHead=0;swimlaneBody=0;fillColor=none;collapsible=0;dropTarget=0;points=[[0,0.5],[1,0.5]];portConstraint=eastwest;top=0;left=0;right=0;bottom=1;" vertex="1" parent="dcefjoT0X8gAKyCZeOqN-1">
          <mxGeometry y="30" width="180" height="30" as="geometry" />
        </mxCell>
        <mxCell id="dcefjoT0X8gAKyCZeOqN-3" value="PK" style="shape=partialRectangle;connectable=0;fillColor=none;top=0;left=0;bottom=0;right=0;fontStyle=1;overflow=hidden;whiteSpace=wrap;html=1;" vertex="1" parent="dcefjoT0X8gAKyCZeOqN-2">
          <mxGeometry width="30" height="30" as="geometry">
            <mxRectangle width="30" height="30" as="alternateBounds" />
          </mxGeometry>
        </mxCell>
        <mxCell id="dcefjoT0X8gAKyCZeOqN-4" value="cart_id" style="shape=partialRectangle;connectable=0;fillColor=none;top=0;left=0;bottom=0;right=0;align=left;spacingLeft=6;fontStyle=5;overflow=hidden;whiteSpace=wrap;html=1;" vertex="1" parent="dcefjoT0X8gAKyCZeOqN-2">
          <mxGeometry x="30" width="150" height="30" as="geometry">
            <mxRectangle width="150" height="30" as="alternateBounds" />
          </mxGeometry>
        </mxCell>
        <mxCell id="dcefjoT0X8gAKyCZeOqN-5" value="" style="shape=tableRow;horizontal=0;startSize=0;swimlaneHead=0;swimlaneBody=0;fillColor=none;collapsible=0;dropTarget=0;points=[[0,0.5],[1,0.5]];portConstraint=eastwest;top=0;left=0;right=0;bottom=0;" vertex="1" parent="dcefjoT0X8gAKyCZeOqN-1">
          <mxGeometry y="60" width="180" height="30" as="geometry" />
        </mxCell>
        <mxCell id="dcefjoT0X8gAKyCZeOqN-6" value="" style="shape=partialRectangle;connectable=0;fillColor=none;top=0;left=0;bottom=0;right=0;editable=1;overflow=hidden;whiteSpace=wrap;html=1;" vertex="1" parent="dcefjoT0X8gAKyCZeOqN-5">
          <mxGeometry width="30" height="30" as="geometry">
            <mxRectangle width="30" height="30" as="alternateBounds" />
          </mxGeometry>
        </mxCell>
        <mxCell id="dcefjoT0X8gAKyCZeOqN-7" value="item_list" style="shape=partialRectangle;connectable=0;fillColor=none;top=0;left=0;bottom=0;right=0;align=left;spacingLeft=6;overflow=hidden;whiteSpace=wrap;html=1;" vertex="1" parent="dcefjoT0X8gAKyCZeOqN-5">
          <mxGeometry x="30" width="150" height="30" as="geometry">
            <mxRectangle width="150" height="30" as="alternateBounds" />
          </mxGeometry>
        </mxCell>
        <mxCell id="dcefjoT0X8gAKyCZeOqN-8" value="" style="shape=tableRow;horizontal=0;startSize=0;swimlaneHead=0;swimlaneBody=0;fillColor=none;collapsible=0;dropTarget=0;points=[[0,0.5],[1,0.5]];portConstraint=eastwest;top=0;left=0;right=0;bottom=0;" vertex="1" parent="dcefjoT0X8gAKyCZeOqN-1">
          <mxGeometry y="90" width="180" height="30" as="geometry" />
        </mxCell>
        <mxCell id="dcefjoT0X8gAKyCZeOqN-9" value="" style="shape=partialRectangle;connectable=0;fillColor=none;top=0;left=0;bottom=0;right=0;editable=1;overflow=hidden;whiteSpace=wrap;html=1;" vertex="1" parent="dcefjoT0X8gAKyCZeOqN-8">
          <mxGeometry width="30" height="30" as="geometry">
            <mxRectangle width="30" height="30" as="alternateBounds" />
          </mxGeometry>
        </mxCell>
        <mxCell id="dcefjoT0X8gAKyCZeOqN-10" value="total_cost" style="shape=partialRectangle;connectable=0;fillColor=none;top=0;left=0;bottom=0;right=0;align=left;spacingLeft=6;overflow=hidden;whiteSpace=wrap;html=1;" vertex="1" parent="dcefjoT0X8gAKyCZeOqN-8">
          <mxGeometry x="30" width="150" height="30" as="geometry">
            <mxRectangle width="150" height="30" as="alternateBounds" />
          </mxGeometry>
        </mxCell>
        <mxCell id="dcefjoT0X8gAKyCZeOqN-11" value="" style="shape=tableRow;horizontal=0;startSize=0;swimlaneHead=0;swimlaneBody=0;fillColor=none;collapsible=0;dropTarget=0;points=[[0,0.5],[1,0.5]];portConstraint=eastwest;top=0;left=0;right=0;bottom=0;" vertex="1" parent="dcefjoT0X8gAKyCZeOqN-1">
          <mxGeometry y="120" width="180" height="30" as="geometry" />
        </mxCell>
        <mxCell id="dcefjoT0X8gAKyCZeOqN-12" value="" style="shape=partialRectangle;connectable=0;fillColor=none;top=0;left=0;bottom=0;right=0;editable=1;overflow=hidden;whiteSpace=wrap;html=1;" vertex="1" parent="dcefjoT0X8gAKyCZeOqN-11">
          <mxGeometry width="30" height="30" as="geometry">
            <mxRectangle width="30" height="30" as="alternateBounds" />
          </mxGeometry>
        </mxCell>
        <mxCell id="dcefjoT0X8gAKyCZeOqN-13" value="" style="shape=partialRectangle;connectable=0;fillColor=none;top=0;left=0;bottom=0;right=0;align=left;spacingLeft=6;overflow=hidden;whiteSpace=wrap;html=1;" vertex="1" parent="dcefjoT0X8gAKyCZeOqN-11">
          <mxGeometry x="30" width="150" height="30" as="geometry">
            <mxRectangle width="150" height="30" as="alternateBounds" />
          </mxGeometry>
        </mxCell>
      </root>
    </mxGraphModel>
  </diagram>
</mxfile>
